<?xml version="1.0" encoding="UTF-8" standalone="no"?><!DOCTYPE svg PUBLIC "-//W3C//DTD SVG 1.1//EN" "http://www.w3.org/Graphics/SVG/1.1/DTD/svg11.dtd"><svg width="100%" height="100%" viewBox="0 0 162 28" version="1.1" xmlns="http://www.w3.org/2000/svg" xmlns:xlink="http://www.w3.org/1999/xlink" xml:space="preserve" xmlns:serif="http://www.serif.com/" style="fill-rule:evenodd;clip-rule:evenodd;stroke-linejoin:round;stroke-miterlimit:2;"><g><path d="M34.158,27.556l-8.544,0l-4.128,-8.449l-8.64,-0l-4.128,8.449l-8.447,0l7.248,-14.785l19.343,-0l7.296,14.785Zm-13.728,-27.456l4.321,8.496l-15.168,0l4.319,-8.496l6.528,-0Z" style="fill:#231f20;fill-rule:nonzero;"/><path d="M59.167,23.332c-0,2.048 -1.777,3.424 -5.329,4.127c-0.352,0.065 -0.608,0.097 -0.768,0.097l-14.735,0l-0,-6.336l9.839,-0c0.544,-0 1.104,-0.232 1.681,-0.697c0.575,-0.463 0.863,-0.951 0.863,-1.463l0,-6.289l8.449,-0l-0,10.561Zm-0,-14.736l-8.449,0l0,-8.496l8.449,-0l-0,8.496Z" style="fill:#231f20;fill-rule:nonzero;"/><path d="M97.326,27.556l-8.544,0l-4.128,-8.449l-8.64,-0l-4.128,8.449l-8.447,0l7.248,-14.785l19.343,-0l7.296,14.785Zm-13.728,-27.456l4.32,8.496l-15.167,0l4.319,-8.496l6.528,-0Z" style="fill:#231f20;fill-rule:nonzero;"/><path d="M125.646,8.596l-25.872,0l0,-8.496l25.872,-0l-0,8.496Zm-9.408,18.96l-8.448,0l-0,-14.785l8.448,-0l0,14.785Z" style="fill:#231f20;fill-rule:nonzero;"/><path d="M161.934,27.556l-8.544,0l-4.128,-8.449l-8.64,-0l-4.128,8.449l-8.448,0l7.248,-14.785l19.344,-0l7.296,14.785Zm-13.728,-27.456l4.319,8.496l-15.168,0l4.321,-8.496l6.528,-0Z" style="fill:#231f20;fill-rule:nonzero;"/></g></svg>