<?xml version="1.0" encoding="UTF-8" standalone="no"?><!DOCTYPE svg PUBLIC "-//W3C//DTD SVG 1.1//EN" "http://www.w3.org/Graphics/SVG/1.1/DTD/svg11.dtd"><svg width="100%" height="100%" viewBox="0 0 803 200" version="1.1" xmlns="http://www.w3.org/2000/svg" xmlns:xlink="http://www.w3.org/1999/xlink" xml:space="preserve" xmlns:serif="http://www.serif.com/" style="fill-rule:evenodd;clip-rule:evenodd;"><g><path d="M16.75,96.75c-2.7,46.66 28.52,88.31 75.24,95.54c47.94,7.42 92.91,-21.75 103.36,-69.42c13.28,-60.63 -35.16,-115.59 -96.68,-109.97c-44.28,4.05 -79.34,39.23 -81.92,83.85" style="fill:none;fill-rule:nonzero;stroke:#007880;stroke-width:2px;"/><path d="M435.75,94.75l0,10.98c0,0.313 -0.13,0.563 -0.39,0.75c-21.9,15.55 -48.39,8.62 -50.85,-20.76c-1.49,-17.7 3.07,-35.35 23.11,-38.53c11.84,-1.88 22.83,2.92 26.87,14.98c0.113,0.327 0.34,0.457 0.68,0.39l18.81,-3.6c0.357,-0.068 0.618,-0.383 0.618,-0.747c-0,-0.068 -0.01,-0.137 -0.028,-0.203c-4.447,-16.173 -15.03,-25.383 -31.75,-27.63c-9.107,-1.22 -17.197,-1 -24.27,0.66c-31.92,7.49 -41.44,43.72 -31.21,71.13c13.99,37.46 60.56,35.58 87.24,15.67c0.737,-0.553 1.171,-1.421 1.17,-2.34l-0,-37.75c-0,-0.274 -0.226,-0.5 -0.5,-0.5l-41.5,0c-0.5,0 -0.75,0.25 -0.75,0.75l-0,15.75c-0,0.333 0.167,0.5 0.5,0.5l21.75,0c0.333,0 0.5,0.167 0.5,0.5" style="fill:none;fill-rule:nonzero;stroke:#007880;stroke-width:2px;"/><path d="M245.5,31.93c0,-0.236 -0.194,-0.43 -0.43,-0.43l-19.14,0c-0.236,0 -0.43,0.194 -0.43,0.43l0,97.64c0,0.236 0.194,0.43 0.43,0.43l19.14,0c0.236,0 0.43,-0.194 0.43,-0.43l0,-97.64" style="fill:none;fill-rule:nonzero;stroke:#007880;stroke-width:2px;"/><path d="M326.09,31.5c-0.187,0 -0.34,0.153 -0.34,0.34l-0,63.94c-0.004,0.184 -0.156,0.333 -0.34,0.333c-0.118,-0 -0.228,-0.062 -0.29,-0.163l-39.48,-64.29c-0.062,-0.1 -0.172,-0.161 -0.29,-0.16l-19.01,0c-0.187,0 -0.34,0.153 -0.34,0.34l-0,97.82c-0,0.187 0.153,0.34 0.34,0.34l17.82,0c0.187,0 0.34,-0.153 0.34,-0.34l0,-62.46c-0,-0.001 -0,-0.002 -0,-0.003c-0,-0.186 0.153,-0.34 0.34,-0.34c0.118,0 0.228,0.062 0.29,0.163l38.87,62.82c0.062,0.1 0.172,0.161 0.29,0.16l19.62,0c0.187,0 0.34,-0.153 0.34,-0.34l0,-97.82c0,-0.187 -0.153,-0.34 -0.34,-0.34l-17.82,0" style="fill:none;fill-rule:nonzero;stroke:#007880;stroke-width:2px;"/><path d="M496.45,113.25c-0.247,0 -0.45,-0.203 -0.45,-0.45l0,-25.35c0,-0.247 0.203,-0.45 0.45,-0.45l48.35,0c0.247,0 0.45,-0.203 0.45,-0.45l0,-16.1c0,-0.247 -0.203,-0.45 -0.45,-0.45l-48.35,0c-0.247,0 -0.45,-0.203 -0.45,-0.45l0,-20.6c0,-0.247 0.203,-0.45 0.45,-0.45l52.1,0c0.247,0 0.45,-0.203 0.45,-0.45l0,-16.1c0,-0.247 -0.203,-0.45 -0.45,-0.45l-72.1,0c-0.247,0 -0.45,0.203 -0.45,0.45l0,97.6c0,0.247 0.203,0.45 0.45,0.45l74.1,0c0.247,0 0.45,-0.203 0.45,-0.45l0,-15.85c0,-0.247 -0.203,-0.45 -0.45,-0.45l-54.1,0" style="fill:none;fill-rule:nonzero;stroke:#007880;stroke-width:2px;"/><path d="M629.09,31.5c-0.187,0 -0.34,0.153 -0.34,0.34l0,63.95c-0.004,0.184 -0.156,0.333 -0.34,0.333c-0.118,-0 -0.228,-0.062 -0.29,-0.163l-39.48,-64.3c-0.062,-0.1 -0.172,-0.161 -0.29,-0.16l-19.01,-0c-0.187,-0 -0.34,0.153 -0.34,0.34l0,97.82c0,0.187 0.153,0.34 0.34,0.34l17.82,-0c0.187,-0 0.34,-0.153 0.34,-0.34l-0,-62.46c-0,-0.001 -0,-0.002 -0,-0.003c-0,-0.186 0.153,-0.34 0.34,-0.34c0.118,0 0.228,0.062 0.29,0.163l38.86,62.82c0.062,0.1 0.172,0.161 0.29,0.16l19.63,0c0.187,0 0.34,-0.153 0.34,-0.34l-0,-97.82c-0,-0.187 -0.153,-0.34 -0.34,-0.34l-17.82,0" style="fill:none;fill-rule:nonzero;stroke:#007880;stroke-width:2px;"/><path d="M689.5,31.93c0,-0.236 -0.194,-0.43 -0.43,-0.43l-19.14,0c-0.236,0 -0.43,0.194 -0.43,0.43l-0,97.64c-0,0.236 0.194,0.43 0.43,0.43l19.14,0c0.236,-0 0.43,-0.194 0.43,-0.43l0,-97.64" style="fill:none;fill-rule:nonzero;stroke:#007880;stroke-width:2px;"/><path d="M768.34,107.75c0.182,-0.003 0.347,0.11 0.41,0.28l8.23,21.69c0.063,0.17 0.228,0.283 0.41,0.28l20.87,0c0,0 0.001,0 0.001,0c0.236,0 0.43,-0.194 0.43,-0.43c-0,-0.055 -0.011,-0.109 -0.031,-0.16l-39.08,-97.64c-0.065,-0.163 -0.224,-0.27 -0.4,-0.27l-20.69,0c-0.176,-0 -0.335,0.107 -0.4,0.27l-37.99,97.64c-0.02,0.051 -0.031,0.105 -0.031,0.16c0,0.236 0.194,0.43 0.43,0.43c0,0 0.001,0 0.001,-0l20.44,0c0.178,-0.001 0.338,-0.113 0.4,-0.28l7.92,-21.69c0.062,-0.167 0.222,-0.279 0.4,-0.28l38.68,0" style="fill:none;fill-rule:nonzero;stroke:#007880;stroke-width:2px;"/><path d="M266.43,148.93l0.29,-2.6c0.056,-0.467 0.465,-0.819 0.94,-0.81l2.73,0.08c0.235,0.006 0.442,-0.155 0.49,-0.38l0.5,-2.34c0.073,-0.353 -0.057,-0.597 -0.39,-0.73c-3.533,-1.393 -6.59,-0.8 -9.17,1.78c-0.103,0.103 -0.167,0.238 -0.18,0.38l-0.51,4.87c-0.027,0.233 -0.157,0.35 -0.39,0.35l-1.73,-0.04c-0.34,-0.007 -0.51,0.16 -0.51,0.5l-0,3.01c-0,0.333 0.167,0.5 0.5,0.5l1.75,-0c0.333,-0 0.5,0.167 0.5,0.5l-0,14.37c-0,0.42 0.207,0.63 0.62,0.63l3.88,-0c0.5,-0 0.75,-0.25 0.75,-0.75l-0,-14.25c-0,-0.333 0.167,-0.5 0.5,-0.5l2.5,-0c0.5,-0 0.75,-0.25 0.75,-0.75l-0,-2.63c-0,-0.413 -0.21,-0.62 -0.63,-0.62l-2.68,-0c-0.387,-0 -0.557,-0.19 -0.51,-0.57" style="fill:none;fill-rule:nonzero;stroke:#007880;stroke-width:2px;"/><path d="M706.25,159.5l0,2.46c0,0.34 -0.143,0.6 -0.43,0.78c-15.91,10.11 -18.98,-19.92 -3.64,-16.11c1.82,0.46 2.89,1.95 3.71,3.51c0.173,0.331 0.542,0.514 0.91,0.45l4.04,-0.72c0.427,-0.073 0.58,-0.317 0.46,-0.73c-1.053,-3.753 -3.29,-6.08 -6.71,-6.98c-11.97,-3.16 -20.26,6.28 -17.24,17.52c3.04,11.35 15.83,12.23 24.03,5.82c0.247,-0.193 0.37,-0.447 0.37,-0.76l0,-9.74c0,-0.333 -0.167,-0.5 -0.5,-0.5l-10.5,0c-0.5,0 -0.75,0.25 -0.75,0.75l0,3.25c0,0.333 0.167,0.5 0.5,0.5l5.25,0c0.333,0 0.5,0.167 0.5,0.5" style="fill:none;fill-rule:nonzero;stroke:#007880;stroke-width:2px;"/><path d="M231,142.71c0,-0.384 -0.316,-0.7 -0.7,-0.7l-4.1,-0c-0.384,0 -0.7,0.316 -0.7,0.7l-0,25.6c-0,0.384 0.316,0.7 0.7,0.7l4.1,0c0.384,0 0.7,-0.316 0.7,-0.7l0,-25.6" style="fill:none;fill-rule:nonzero;stroke:#007880;stroke-width:2px;"/><path d="M385.993,142.573c-0.004,-0.33 -0.278,-0.598 -0.607,-0.594l-4.059,0.042c-0.33,0.004 -0.598,0.278 -0.594,0.607l0.034,3.299c0.004,0.33 0.278,0.598 0.607,0.594l4.06,-0.042c0.329,-0.004 0.597,-0.278 0.593,-0.607l-0.034,-3.3" style="fill:none;fill-rule:nonzero;stroke:#007880;stroke-width:2px;"/><path d="M521,150.99l0,-8.37c0,-0.413 -0.21,-0.62 -0.63,-0.62l-3.99,0c-0.42,0 -0.63,0.21 -0.63,0.63l0,25.62c0,0.5 0.25,0.75 0.75,0.75l3.98,0c0.333,0 0.5,-0.167 0.5,-0.5c-0.01,-3.48 -1.43,-14.44 3.27,-15.46c5.95,-1.28 4.01,11.89 3.99,15.42c0,0.36 0.18,0.54 0.54,0.54l4,0c0.395,0 0.72,-0.325 0.72,-0.72c0.01,-4.48 0.88,-13.05 -1.11,-16.55c-2.28,-4.03 -7.48,-2.93 -10.9,-0.49c-0.327,0.233 -0.49,0.15 -0.49,-0.25" style="fill:none;fill-rule:nonzero;stroke:#007880;stroke-width:2px;"/><path d="M592.01,142.52c0,-0.285 -0.235,-0.52 -0.52,-0.52l-4.22,0c-0.285,-0 -0.52,0.235 -0.52,0.52l0,25.96c0,0.285 0.235,0.52 0.52,0.52l4.22,-0c0.285,0 0.52,-0.235 0.52,-0.52l0,-25.96" style="fill:none;fill-rule:nonzero;stroke:#007880;stroke-width:2px;"/><path d="M648.987,142.422c-0.001,-0.235 -0.195,-0.427 -0.43,-0.427c-0.001,-0 -0.002,-0 -0.003,-0l-4.4,0.03c-0.236,0.002 -0.428,0.198 -0.427,0.433l0.026,3.64c0.001,0.235 0.195,0.427 0.43,0.427c0.001,0 0.002,0 0.003,0l4.4,-0.03c0.236,-0.002 0.428,-0.198 0.427,-0.433l-0.026,-3.64" style="fill:none;fill-rule:nonzero;stroke:#007880;stroke-width:2px;"/><path d="M755.79,166.69c11.41,11.37 19.56,-12.42 9.39,-16.85c-3.24,-1.407 -6.04,-0.99 -8.4,1.25c-0.086,0.083 -0.201,0.13 -0.32,0.13c-0.252,-0 -0.46,-0.208 -0.46,-0.46c-0,-0.004 -0,-0.007 0,-0.01l0,-8c0,-0.5 -0.25,-0.75 -0.75,-0.75l-3.75,0c-0.5,0 -0.75,0.25 -0.75,0.75l0,25.5c0,0.5 0.25,0.75 0.75,0.75l3.35,0c0.03,0 0.059,-0.002 0.089,-0.005c0.375,-0.048 0.645,-0.4 0.597,-0.781c-0.004,-0.029 -0.009,-0.056 -0.016,-0.084l-0.28,-1.13c-0.005,-0.023 -0.008,-0.047 -0.008,-0.071c0,-0.181 0.149,-0.33 0.33,-0.33c0.085,-0 0.167,0.032 0.228,0.091" style="fill:none;fill-rule:nonzero;stroke:#007880;stroke-width:2px;"/><path d="M780.61,152.5c-0.197,0 -0.36,-0.163 -0.36,-0.36l0,-9.78c0,-0.197 -0.163,-0.36 -0.36,-0.36l-4.78,0c-0.197,0 -0.36,0.163 -0.36,0.36l0,26.28c0,0.197 0.163,0.36 0.36,0.36l4.78,0c0.197,0 0.36,-0.163 0.36,-0.36l0,-11.28c0,-0.197 0.163,-0.36 0.36,-0.36l10.03,0c0.197,0 0.36,0.163 0.36,0.36l0,11.28c0,0.197 0.163,0.36 0.36,0.36l4.78,0c0.197,0 0.36,-0.163 0.36,-0.36l0,-26.28c0,-0.197 -0.163,-0.36 -0.36,-0.36l-4.78,0c-0.197,0 -0.36,0.163 -0.36,0.36l0,9.78c0,0.197 -0.163,0.36 -0.36,0.36l-10.03,0" style="fill:none;fill-rule:nonzero;stroke:#007880;stroke-width:2px;"/><path d="M373.25,149l0,-5.51c0,-0.467 -0.203,-0.583 -0.61,-0.35l-4.14,2.36c-0.333,0.187 -0.5,0.47 -0.5,0.85l0,2.72c0,0.427 -0.21,0.613 -0.63,0.56l-1.31,-0.17c-0.373,-0.047 -0.56,0.117 -0.56,0.49l0,3.05c0,0.333 0.167,0.5 0.5,0.5l1.5,-0c0.367,-0 0.547,0.183 0.54,0.55c-0.2,6.71 -2.8,17.68 8.72,14.95c0.353,-0.087 0.51,-0.31 0.47,-0.67l-0.32,-2.79c-0.024,-0.228 -0.218,-0.403 -0.448,-0.403c-0.074,-0 -0.147,0.018 -0.212,0.053c-0.893,0.48 -1.733,0.467 -2.52,-0.04c-0.298,-0.193 -0.479,-0.525 -0.48,-0.88l-0,-10.27c-0,-0.333 0.167,-0.5 0.5,-0.5l2.63,-0c0.367,-0 0.557,-0.183 0.57,-0.55l0.07,-2.8c0.013,-0.433 -0.197,-0.65 -0.63,-0.65l-2.64,-0c-0.333,-0 -0.5,-0.167 -0.5,-0.5" style="fill:none;fill-rule:nonzero;stroke:#007880;stroke-width:2px;"/><path d="M465.25,149l0,-5.51c0,-0.453 -0.197,-0.567 -0.59,-0.34l-4.2,2.41c-0.284,0.161 -0.46,0.464 -0.46,0.79l0,2.521c0,0.362 -0.298,0.66 -0.66,0.66c-0.01,-0 -0.02,-0.001 -0.03,-0.001l-1.3,-0.04c-0.34,-0.013 -0.51,0.153 -0.51,0.5l-0,2.76c-0,0.5 0.25,0.75 0.75,0.75l1.23,0c0.327,0 0.49,0.163 0.49,0.49c-0,6.56 -2.78,17.83 8.78,14.97c0.367,-0.093 0.527,-0.33 0.48,-0.71l-0.35,-2.81c-0.053,-0.447 -0.273,-0.55 -0.66,-0.31c-1.9,1.16 -2.98,0.06 -2.98,-1.89c0,-3.067 0.003,-6.143 0.01,-9.23c0.007,-0.34 0.177,-0.51 0.51,-0.51l2.55,0c0.373,0 0.567,-0.183 0.58,-0.55l0.15,-2.79c0.02,-0.44 -0.19,-0.66 -0.63,-0.66l-2.66,0c-0.333,0 -0.5,-0.167 -0.5,-0.5" style="fill:none;fill-rule:nonzero;stroke:#007880;stroke-width:2px;"/><path d="M241.27,151.48l0.28,-1.4c0.073,-0.387 -0.087,-0.58 -0.48,-0.58l-3.82,0c-0.333,0 -0.5,0.167 -0.5,0.5l-0,18.5c-0,0.333 0.167,0.5 0.5,0.5l4.24,0c0.34,0 0.51,-0.17 0.51,-0.51c-0.01,-3.19 -0.96,-12.93 1.88,-14.83c7.35,-4.89 5.37,12.43 5.36,14.78c-0,0.373 0.187,0.56 0.56,0.56l4,0c0.447,0 0.673,-0.223 0.68,-0.67c0.047,-4.14 0.043,-8.277 -0.01,-12.41c-0.1,-7.83 -8,-8.7 -12.57,-4.11c-0.07,0.073 -0.167,0.114 -0.268,0.114c-0.203,0 -0.37,-0.167 -0.37,-0.37c0,-0.025 0.003,-0.05 0.008,-0.074" style="fill:none;fill-rule:nonzero;stroke:#007880;stroke-width:2px;"/><path d="M292.83,159.24c0,-5.617 -4.623,-10.24 -10.24,-10.24c-5.617,0 -10.24,4.623 -10.24,10.24c0,5.617 4.623,10.24 10.24,10.24c5.617,0 10.24,-4.623 10.24,-10.24" style="fill:none;fill-rule:nonzero;stroke:#007880;stroke-width:2px;"/><path d="M301.24,151.24l0.29,-1.15c0.01,-0.039 0.016,-0.08 0.016,-0.12c-0,-0.258 -0.213,-0.47 -0.47,-0.47c-0.002,-0 -0.004,-0 -0.006,0l-3.82,0c-0.333,0 -0.5,0.167 -0.5,0.5l-0,18.5c-0,0.333 0.167,0.5 0.5,0.5l4.25,0c0.001,0 0.001,0 0.002,0c0.329,0 0.6,-0.271 0.6,-0.6c0,-0.017 -0.001,-0.033 -0.002,-0.05c-0.2,-2.59 -1.63,-17.89 5.17,-14.04c0.373,0.207 0.62,0.107 0.74,-0.3l1.04,-3.46c0.113,-0.367 -0.003,-0.633 -0.35,-0.8c-2.813,-1.353 -5.053,-0.75 -6.72,1.81c-0.076,0.113 -0.204,0.181 -0.34,0.181c-0.225,0 -0.41,-0.185 -0.41,-0.41c-0,-0.03 0.003,-0.061 0.01,-0.091" style="fill:none;fill-rule:nonzero;stroke:#007880;stroke-width:2px;"/><path d="M316,151.23l0,-1.11c0,-0.413 -0.21,-0.62 -0.63,-0.62l-3.62,0c-0.333,0 -0.5,0.167 -0.5,0.5l0,18.25c0,0.5 0.25,0.75 0.75,0.75l4,0c0.367,0 0.543,-0.183 0.53,-0.55c-0.1,-3.76 -0.067,-7.513 0.1,-11.26c0.23,-5.01 6.55,-5.86 6.43,-0.92c-0.087,4.047 -0.097,8.127 -0.03,12.24c-0,0.269 0.221,0.49 0.49,0.49l4.23,0c0.347,0 0.52,-0.177 0.52,-0.53c-0.053,-5.987 -0.037,-9.783 0.05,-11.39c0.25,-4.56 6.4,-5.96 6.39,-0.82c-0.013,4.053 0.013,8.13 0.08,12.23c0,0.34 0.17,0.51 0.51,0.51l4.01,0c0.393,0 0.597,-0.197 0.61,-0.59c0.193,-7.273 0.203,-11.89 0.03,-13.85c-0.57,-6.34 -7.56,-6.82 -11.76,-3.08c-0.293,0.267 -0.583,0.263 -0.87,-0.01c-3.527,-3.3 -7.097,-3.293 -10.71,0.02c-0.407,0.373 -0.61,0.287 -0.61,-0.26" style="fill:none;fill-rule:nonzero;stroke:#007880;stroke-width:2px;"/><path d="M356.24,167.06c0.091,-0.098 0.218,-0.154 0.352,-0.154c0.223,0 0.418,0.156 0.468,0.374l0.28,1.18c0.087,0.36 0.317,0.54 0.69,0.54l3.73,0c0.367,0 0.517,-0.18 0.45,-0.54c-0.807,-4.613 -1.017,-9.267 -0.63,-13.96c0.55,-6.68 -14.88,-7.93 -16.26,-0.28c-0.06,0.34 0.08,0.54 0.42,0.6l3.51,0.61c0.307,0.053 0.527,-0.063 0.66,-0.35c1.45,-3.16 7.03,-2.78 6.26,0.9c-0.067,0.32 -0.257,0.517 -0.57,0.59c-4.07,0.96 -11.02,1.23 -11.3,6.92c-0.32,6.49 8.17,7.59 11.94,3.57" style="fill:none;fill-rule:nonzero;stroke:#007880;stroke-width:2px;"/><path d="M410.84,159.25c-0,-5.623 -4.627,-10.25 -10.25,-10.25c-5.623,0 -10.25,4.627 -10.25,10.25c-0,5.623 4.627,10.25 10.25,10.25c5.623,0 10.25,-4.627 10.25,-10.25" style="fill:none;fill-rule:nonzero;stroke:#007880;stroke-width:2px;"/><path d="M419.22,151.46l0.3,-1.39c0.087,-0.38 -0.063,-0.57 -0.45,-0.57l-3.82,-0c-0.333,-0 -0.5,0.167 -0.5,0.5l-0,18.5c-0,0.333 0.167,0.5 0.5,0.5l4.24,-0c0.34,-0 0.51,-0.17 0.51,-0.51c-0.007,-3.473 0.003,-6.94 0.03,-10.4c0.03,-4.13 3.51,-7 6.84,-3.68c0.186,0.192 0.293,0.446 0.3,0.71l0.12,13.4c0,0.32 0.16,0.48 0.48,0.48l4.16,-0c0.393,-0 0.587,-0.193 0.58,-0.58c-0.05,-5.84 2.92,-22.39 -9.02,-18.98c-1.46,0.42 -2.47,1.5 -3.77,2.37c-0.453,0.3 -0.62,0.183 -0.5,-0.35" style="fill:none;fill-rule:nonzero;stroke:#007880;stroke-width:2px;"/><path d="M438.44,152.19c-4.17,7.15 6.22,9.23 10.57,10.03c0.699,0.13 1.21,0.745 1.21,1.455c0,0.561 -0.318,1.075 -0.82,1.325c-3.107,1.553 -5.583,0.977 -7.43,-1.73c-0.213,-0.32 -0.51,-0.45 -0.89,-0.39l-3.77,0.57c-0.353,0.06 -0.467,0.257 -0.34,0.59c1.92,5.23 8.01,6.19 12.8,5.07c5.69,-1.34 8.16,-8.68 1.38,-11.16c-2.707,-0.987 -5.397,-1.767 -8.07,-2.34c-0.552,-0.118 -0.95,-0.609 -0.95,-1.174c0,-0.456 0.261,-0.874 0.67,-1.076c2.66,-1.313 4.793,-0.867 6.4,1.34c0.22,0.307 0.517,0.437 0.89,0.39l3.65,-0.49c0.38,-0.053 0.52,-0.263 0.42,-0.63c-1.61,-6.07 -12.84,-6.72 -15.72,-1.78" style="fill:none;fill-rule:nonzero;stroke:#007880;stroke-width:2px;"/><path d="M477.01,160.75l12.18,0c0.327,0 0.493,-0.163 0.5,-0.49c0.033,-7.613 -3.39,-11.307 -10.27,-11.08c-9.94,0.32 -11.26,17.53 -1.51,19.91c5.247,1.28 9.027,-0.373 11.34,-4.96c0.173,-0.34 0.073,-0.54 -0.3,-0.6l-4.21,-0.72c-0.327,-0.06 -0.553,0.067 -0.68,0.38c-1.81,4.41 -7.31,2.1 -7.5,-1.97c-0.013,-0.313 0.137,-0.47 0.45,-0.47" style="fill:none;fill-rule:nonzero;stroke:#007880;stroke-width:2px;"/><path d="M511.36,154.73c-4.47,-11.3 -20.62,-5.16 -17.49,7.61c2.24,9.13 14.47,9.81 17.72,0.96c0.009,-0.023 0.017,-0.047 0.023,-0.071c0.095,-0.367 -0.132,-0.748 -0.504,-0.845c-0.022,-0.006 -0.046,-0.01 -0.069,-0.014l-3.93,-0.57c-0.4,-0.053 -0.65,0.113 -0.75,0.5l-0.38,1.47c-0.073,0.287 -0.227,0.52 -0.46,0.7c-6.99,5.32 -8.89,-9.21 -4.47,-11.15c2.4,-1.047 4.103,-0.33 5.11,2.15c0.112,0.285 0.406,0.459 0.71,0.42l4.1,-0.51c0.24,-0.029 0.422,-0.235 0.422,-0.477c0,-0.059 -0.011,-0.118 -0.032,-0.173" style="fill:none;fill-rule:nonzero;stroke:#007880;stroke-width:2px;"/><path d="M544.21,151.5l0.31,-1.43c0.087,-0.38 -0.063,-0.57 -0.45,-0.57l-3.82,0c-0.333,0 -0.5,0.167 -0.5,0.5l0,18.5c0,0.333 0.167,0.5 0.5,0.5l4.25,0c0.347,0 0.52,-0.177 0.52,-0.53c-0.053,-5.807 -0.037,-9.523 0.05,-11.15c0.28,-4.88 6.89,-6.03 7.12,-1.24c0.1,2.02 0.11,6.133 0.03,12.34c-0.007,0.387 0.183,0.58 0.57,0.58l4.02,0c0.453,0 0.68,-0.227 0.68,-0.68c0.03,-5.24 0.66,-11.39 -0.79,-16.41c-0.107,-0.367 -0.313,-0.663 -0.62,-0.89c-3.993,-2.927 -7.733,-2.65 -11.22,0.83c-0.046,0.044 -0.102,0.076 -0.163,0.095c-0.205,0.06 -0.422,-0.054 -0.482,-0.254c-0.018,-0.062 -0.02,-0.128 -0.005,-0.191" style="fill:none;fill-rule:nonzero;stroke:#007880;stroke-width:2px;"/><path d="M581.84,159.24c0,-5.623 -4.627,-10.25 -10.25,-10.25c-5.623,0 -10.25,4.627 -10.25,10.25c0,5.623 4.627,10.25 10.25,10.25c5.623,0 10.25,-4.627 10.25,-10.25" style="fill:none;fill-rule:nonzero;stroke:#007880;stroke-width:2px;"/><path d="M615.84,159.24c0,-5.623 -4.627,-10.25 -10.25,-10.25c-5.623,0 -10.25,4.627 -10.25,10.25c0,5.623 4.627,10.25 10.25,10.25c5.623,0 10.25,-4.627 10.25,-10.25" style="fill:none;fill-rule:nonzero;stroke:#007880;stroke-width:2px;"/><path d="M633.03,167.17c1.59,5.34 -4.25,8.15 -6.79,4.2c-0.193,-0.3 -0.463,-0.467 -0.81,-0.5l-4.61,-0.44c-0.34,-0.033 -0.503,0.12 -0.49,0.46c0.2,7.45 12.98,7.83 16.52,3.27c2.93,-3.79 1.67,-18.99 1.61,-24.18c0,-0.32 -0.16,-0.48 -0.48,-0.48l-3.6,-0c-0.42,-0 -0.63,0.21 -0.63,0.63l0,1.1c0,0.487 -0.18,0.567 -0.54,0.24c-5.13,-4.58 -11.1,-2.5 -13.13,3.68c-2.43,7.44 3.75,18.88 12.47,11.87c0.233,-0.187 0.393,-0.137 0.48,0.15" style="fill:none;fill-rule:nonzero;stroke:#007880;stroke-width:2px;"/><path d="M659.01,160.75l12.01,0c0.311,0.001 0.574,-0.24 0.6,-0.55c1.06,-11.05 -13.27,-15.89 -17.36,-5.94c-5.71,13.94 12.54,21.22 16.86,9.88c0.14,-0.373 0.013,-0.593 -0.38,-0.66l-3.98,-0.71c-0.333,-0.053 -0.563,0.073 -0.69,0.38c-1.8,4.46 -7.32,2.15 -7.51,-1.93c-0.013,-0.313 0.137,-0.47 0.45,-0.47" style="fill:none;fill-rule:nonzero;stroke:#007880;stroke-width:2px;"/><path d="M722,151.23l0,-1.11c0,-0.413 -0.207,-0.62 -0.62,-0.62l-3.63,0c-0.333,0 -0.5,0.167 -0.5,0.5l0,18.25c0,0.5 0.25,0.75 0.75,0.75l4,0c0.367,0 0.543,-0.183 0.53,-0.55c-0.08,-3.04 -0.73,-11.59 0.79,-13.98c1.49,-2.32 5.71,-1.75 5.69,1.03c-0.027,4.32 -0.027,8.653 0,13c0.007,0.333 0.177,0.5 0.51,0.5l4.21,0c0.327,0 0.49,-0.163 0.49,-0.49c0.007,-3.74 0.087,-7.467 0.24,-11.18c0.13,-3.33 3.02,-6.1 5.88,-3.13c0.218,0.225 0.343,0.528 0.35,0.85l0.09,13.47c-0,0.32 0.163,0.48 0.49,0.48l4.21,0c0.333,0 0.5,-0.167 0.5,-0.5c0.04,-4.03 0.93,-13.52 -1.02,-16.74c-2.35,-3.9 -7.39,-3.29 -10.77,-0.27c-0.293,0.267 -0.587,0.263 -0.88,-0.01c-3.52,-3.327 -7.087,-3.323 -10.7,0.01c-0.407,0.38 -0.61,0.293 -0.61,-0.26" style="fill:none;fill-rule:nonzero;stroke:#007880;stroke-width:2px;"/><path d="M385.99,149.81c0,-0.17 -0.14,-0.31 -0.31,-0.31l-4.62,0c-0.17,0 -0.31,0.14 -0.31,0.31l0,18.88c-0,0.17 0.14,0.31 0.31,0.31l4.62,0c0.17,0 0.31,-0.14 0.31,-0.31l0,-18.88" style="fill:none;fill-rule:nonzero;stroke:#007880;stroke-width:2px;"/><path d="M648.99,149.81c0,-0.17 -0.14,-0.31 -0.31,-0.31l-4.62,0c-0.17,0 -0.31,0.14 -0.31,0.31l-0,18.88c-0,0.17 0.14,0.31 0.31,0.31l4.62,0c0.17,0 0.31,-0.14 0.31,-0.31l0,-18.88" style="fill:none;fill-rule:nonzero;stroke:#007880;stroke-width:2px;"/><path d="M187.83,89.16c-6.61,-33.49 -29.29,-57.57 -62.37,-66.03c-0.029,-0.007 -0.06,-0.011 -0.09,-0.011c-0.203,-0 -0.37,0.167 -0.37,0.37c-0,0 -0,0.001 0,0.001l0,149.53c0.005,0.775 0.645,1.41 1.42,1.41c0.443,0 0.862,-0.207 1.13,-0.56l59.87,-79.71c0.158,-0.21 0.264,-0.45 0.31,-0.7c0.29,-1.44 0.39,-2.84 0.1,-4.3" style="fill:none;fill-rule:nonzero;stroke:#007880;stroke-width:2px;"/><path d="M84.52,25c0.26,-0.107 0.42,-0.263 0.48,-0.47c0.004,-0.016 0.006,-0.033 0.006,-0.05c-0,-0.121 -0.1,-0.22 -0.22,-0.22c-0.023,-0 -0.045,0.003 -0.066,0.01c-30.16,8.9 -49.54,30.36 -57.67,60.43c-0.367,1.367 -0.067,1.533 0.9,0.5l56.18,-59.92c0.113,-0.12 0.243,-0.213 0.39,-0.28" style="fill:none;fill-rule:nonzero;stroke:#007880;stroke-width:2px;"/><path d="M24.65,103.76c1.47,39.06 27.12,70.58 65.37,79.45c0.059,0.014 0.119,0.021 0.18,0.021c0.439,-0 0.8,-0.362 0.8,-0.8c0,-0.001 0,-0.001 -0,-0.001l-0,-152.88c-0.003,-0.217 -0.183,-0.395 -0.4,-0.395c-0.11,0 -0.215,0.046 -0.29,0.125c-19.02,20.327 -38.103,40.72 -57.25,61.18c-4.14,4.43 -8.67,6.3 -8.41,13.3" style="fill:none;fill-rule:nonzero;stroke:#007880;stroke-width:2px;"/><path d="M187.85,105.63l-55.96,74.52c-0.052,0.073 -0.08,0.16 -0.08,0.25c-0,0.236 0.194,0.43 0.43,0.43c0.044,0 0.088,-0.007 0.13,-0.02c32.37,-11.01 52.55,-37.31 56.47,-71.14c0.16,-1.433 0.21,-2.667 0.15,-3.7c-0.073,-1.147 -0.453,-1.26 -1.14,-0.34" style="fill:none;fill-rule:nonzero;stroke:#007880;stroke-width:2px;"/><path d="M735.72,90.37c-0.012,0.035 -0.019,0.073 -0.019,0.11c0,0.181 0.148,0.329 0.329,0.33l25.65,-0.13c0.178,-0.004 0.323,-0.152 0.323,-0.33c-0,-0.041 -0.008,-0.082 -0.023,-0.12l-13,-34.46c-0.047,-0.13 -0.172,-0.217 -0.31,-0.217c-0.138,0 -0.263,0.087 -0.31,0.217l-12.64,34.6" style="fill:none;fill-rule:nonzero;stroke:#007880;stroke-width:2px;"/><path d="M760.402,165.549c0,-0 0,-0 0,-0c2.375,-0.05 4.27,-2.943 4.197,-6.41c0,0 0,0 0,0c-0.073,-3.466 -2.086,-6.277 -4.461,-6.228l-0,0c-2.375,0.05 -4.27,2.943 -4.197,6.41c-0,-0 -0,-0 -0,-0c0.073,3.466 2.086,6.277 4.461,6.228c0,-0 0,-0 0,-0" style="fill:none;fill-rule:nonzero;stroke:#007880;stroke-width:2px;"/><path d="M282.52,165.5c2.644,0 4.82,-2.826 4.82,-6.26c-0,-3.434 -2.176,-6.26 -4.82,-6.26c-2.644,0 -4.82,2.826 -4.82,6.26c0,3.434 2.176,6.26 4.82,6.26" style="fill:none;fill-rule:nonzero;stroke:#007880;stroke-width:2px;"/><path d="M355.03,160.01l-5.14,1.85c-0.451,0.164 -0.69,0.667 -0.53,1.12l0.05,0.14c0.645,1.79 2.635,2.738 4.41,2.1l0.32,-0.11c1.775,-0.64 2.705,-2.639 2.06,-4.43l-0.05,-0.14c-0.164,-0.451 -0.667,-0.69 -1.12,-0.53" style="fill:none;fill-rule:nonzero;stroke:#007880;stroke-width:2px;"/><path d="M400.51,165.5c2.644,0 4.82,-2.821 4.82,-6.25c-0,-3.429 -2.176,-6.25 -4.82,-6.25c-2.644,0 -4.82,2.821 -4.82,6.25c0,3.429 2.176,6.25 4.82,6.25" style="fill:none;fill-rule:nonzero;stroke:#007880;stroke-width:2px;"/><path d="M477.05,157.51l6.92,-0.02c0.236,0 0.43,-0.194 0.43,-0.43l-0,-0.15c-0.005,-2.103 -1.733,-3.83 -3.83,-3.83l-0.127,0c-2.101,0.004 -3.827,1.74 -3.823,3.847l-0,0.153c-0,0.236 0.194,0.43 0.43,0.43" style="fill:none;fill-rule:nonzero;stroke:#007880;stroke-width:2px;"/><path d="M571.478,165.48c2.633,0.009 4.81,-2.796 4.822,-6.213c0,-0 0,-0 0,-0c0.012,-3.418 -2.145,-6.238 -4.778,-6.247c-0,0 -0,0 -0,0c-2.633,-0.009 -4.81,2.796 -4.822,6.213c-0,0 -0,0 -0,0c-0.012,3.418 2.145,6.238 4.778,6.247c0,-0 0,-0 0,0" style="fill:none;fill-rule:nonzero;stroke:#007880;stroke-width:2px;"/><path d="M605.522,165.49c-0,-0 -0,-0 -0,-0c2.633,-0.009 4.79,-2.829 4.778,-6.247c0,0 0,0 0,0c-0.012,-3.417 -2.189,-6.222 -4.822,-6.213c0,0 0,0 0,0c-2.633,0.009 -4.79,2.829 -4.778,6.247c-0,-0 -0,-0 -0,-0c0.012,3.417 2.189,6.222 4.822,6.213" style="fill:none;fill-rule:nonzero;stroke:#007880;stroke-width:2px;"/><path d="M628.949,165c0,0 0,0 0,0c2.37,0.008 4.329,-2.702 4.341,-6.005l0,0c0.012,-3.302 -1.929,-6.027 -4.299,-6.035l-0,-0c-2.37,-0.008 -4.329,2.702 -4.341,6.005l-0,-0c-0.012,3.302 1.929,6.027 4.299,6.035c-0,-0 -0,-0 -0,-0" style="fill:none;fill-rule:nonzero;stroke:#007880;stroke-width:2px;"/><path d="M659.06,157.5l6.92,0c0.236,-0 0.43,-0.194 0.43,-0.43l0,-0.13c0,-2.107 -1.724,-3.84 -3.82,-3.84l-0.14,0c-2.096,-0 -3.82,1.733 -3.82,3.84l0,0.13c0,0.236 0.194,0.43 0.43,0.43" style="fill:none;fill-rule:nonzero;stroke:#007880;stroke-width:2px;"/></g><path d="M91.99,192.29c-46.72,-7.23 -77.94,-48.88 -75.24,-95.54c2.58,-44.62 37.64,-79.8 81.92,-83.85c61.52,-5.62 109.96,49.34 96.68,109.97c-10.45,47.67 -55.42,76.84 -103.36,69.42Zm95.84,-103.13c-6.61,-33.49 -29.29,-57.57 -62.37,-66.03c-0.029,-0.007 -0.06,-0.011 -0.09,-0.011c-0.203,-0 -0.37,0.167 -0.37,0.37c-0,0 -0,0.001 -0,0.001l-0,149.53c0.005,0.775 0.645,1.41 1.42,1.41c0.443,0 0.862,-0.207 1.13,-0.56l59.87,-79.71c0.158,-0.21 0.264,-0.45 0.31,-0.7c0.29,-1.44 0.39,-2.84 0.1,-4.3Zm-103.31,-64.16c0.26,-0.107 0.42,-0.263 0.48,-0.47c0.004,-0.016 0.006,-0.033 0.006,-0.05c-0,-0.121 -0.1,-0.22 -0.22,-0.22c-0.023,-0 -0.045,0.003 -0.066,0.01c-30.16,8.9 -49.54,30.36 -57.67,60.43c-0.367,1.367 -0.067,1.533 0.9,0.5l56.18,-59.92c0.113,-0.12 0.243,-0.213 0.39,-0.28Zm-59.87,78.76c1.47,39.06 27.12,70.58 65.37,79.45c0.059,0.014 0.119,0.021 0.18,0.021c0.439,-0 0.8,-0.362 0.8,-0.8c0,-0.001 0,-0.001 -0,-0.001l-0,-152.88c-0.003,-0.217 -0.183,-0.395 -0.4,-0.395c-0.11,0 -0.215,0.046 -0.29,0.125c-19.02,20.327 -38.103,40.72 -57.25,61.18c-4.14,4.43 -8.67,6.3 -8.41,13.3Zm163.2,1.87l-55.96,74.52c-0.052,0.073 -0.08,0.16 -0.08,0.25c-0,0.236 0.194,0.43 0.43,0.43c0.044,0 0.088,-0.007 0.13,-0.02c32.37,-11.01 52.55,-37.31 56.47,-71.14c0.16,-1.433 0.21,-2.667 0.15,-3.7c-0.073,-1.147 -0.453,-1.26 -1.14,-0.34Z" style="fill:#007880;fill-rule:nonzero;"/><path d="M435.25,94.25l-21.75,0c-0.333,0 -0.5,-0.167 -0.5,-0.5l0,-15.75c0,-0.5 0.25,-0.75 0.75,-0.75l41.5,0c0.274,0 0.5,0.226 0.5,0.5l0,37.75c0.001,0.919 -0.433,1.787 -1.17,2.34c-26.68,19.91 -73.25,21.79 -87.24,-15.67c-10.23,-27.41 -0.71,-63.64 31.21,-71.13c7.073,-1.66 15.163,-1.88 24.27,-0.66c16.72,2.247 27.303,11.457 31.75,27.63c0.018,0.066 0.028,0.135 0.028,0.203c-0,0.364 -0.261,0.679 -0.618,0.747l-18.81,3.6c-0.34,0.067 -0.567,-0.063 -0.68,-0.39c-4.04,-12.06 -15.03,-16.86 -26.87,-14.98c-20.04,3.18 -24.6,20.83 -23.11,38.53c2.46,29.38 28.95,36.31 50.85,20.76c0.26,-0.187 0.39,-0.437 0.39,-0.75l0,-10.98c0,-0.333 -0.167,-0.5 -0.5,-0.5Z" style="fill:#007880;fill-rule:nonzero;"/><path d="M245.5,31.93c0,-0.237 -0.193,-0.43 -0.43,-0.43l-19.14,0c-0.237,0 -0.43,0.193 -0.43,0.43l0,97.64c0,0.237 0.193,0.43 0.43,0.43l19.14,0c0.237,0 0.43,-0.193 0.43,-0.43l0,-97.64Z" style="fill:#007880;"/><path d="M326.09,31.5l17.82,0c0.187,0 0.34,0.153 0.34,0.34l0,97.82c0,0.187 -0.153,0.34 -0.34,0.34l-19.62,0c-0.118,0.001 -0.228,-0.06 -0.29,-0.16l-38.87,-62.82c-0.062,-0.101 -0.172,-0.163 -0.29,-0.163c-0.187,0 -0.34,0.154 -0.34,0.34c-0,0.001 -0,0.002 0,0.003l0,62.46c0,0.187 -0.153,0.34 -0.34,0.34l-17.82,-0c-0.187,-0 -0.34,-0.153 -0.34,-0.34l-0,-97.82c-0,-0.187 0.153,-0.34 0.34,-0.34l19.01,-0c0.118,-0.001 0.228,0.06 0.29,0.16l39.48,64.29c0.062,0.101 0.172,0.163 0.29,0.163c0.184,-0 0.336,-0.149 0.34,-0.333l-0,-63.94c-0,-0.187 0.153,-0.34 0.34,-0.34Z" style="fill:#007880;fill-rule:nonzero;"/><path d="M496.45,113.25l54.1,0c0.247,-0 0.45,0.203 0.45,0.45l0,15.85c0,0.247 -0.203,0.45 -0.45,0.45l-74.1,0c-0.247,0 -0.45,-0.203 -0.45,-0.45l0,-97.6c0,-0.247 0.203,-0.45 0.45,-0.45l72.1,-0c0.247,0 0.45,0.203 0.45,0.45l0,16.1c0,0.247 -0.203,0.45 -0.45,0.45l-52.1,-0c-0.247,0 -0.45,0.203 -0.45,0.45l0,20.6c0,0.247 0.203,0.45 0.45,0.45l48.35,-0c0.247,-0 0.45,0.203 0.45,0.45l0,16.1c0,0.247 -0.203,0.45 -0.45,0.45l-48.35,-0c-0.247,-0 -0.45,0.203 -0.45,0.45l0,25.35c0,0.247 0.203,0.45 0.45,0.45Z" style="fill:#007880;fill-rule:nonzero;"/><path d="M629.09,31.5l17.82,0c0.187,0 0.34,0.153 0.34,0.34l-0,97.82c-0,0.187 -0.153,0.34 -0.34,0.34l-19.63,0c-0.118,0.001 -0.228,-0.06 -0.29,-0.16l-38.86,-62.82c-0.062,-0.101 -0.172,-0.163 -0.29,-0.163c-0.187,0 -0.34,0.154 -0.34,0.34c-0,0.001 -0,0.002 0,0.003l-0,62.46c-0,0.187 -0.153,0.34 -0.34,0.34l-17.82,-0c-0.187,-0 -0.34,-0.153 -0.34,-0.34l0,-97.82c0,-0.187 0.153,-0.34 0.34,-0.34l19.01,-0c0.118,-0.001 0.228,0.06 0.29,0.16l39.48,64.3c0.062,0.101 0.172,0.163 0.29,0.163c0.184,-0 0.336,-0.149 0.34,-0.333l0,-63.95c0,-0.187 0.153,-0.34 0.34,-0.34Z" style="fill:#007880;fill-rule:nonzero;"/><path d="M689.5,31.93c0,-0.237 -0.193,-0.43 -0.43,-0.43l-19.14,0c-0.237,0 -0.43,0.193 -0.43,0.43l-0,97.64c-0,0.237 0.193,0.43 0.43,0.43l19.14,0c0.237,0 0.43,-0.193 0.43,-0.43l0,-97.64Z" style="fill:#007880;"/><path d="M768.34,107.75l-38.68,0c-0.178,0.001 -0.338,0.113 -0.4,0.28l-7.92,21.69c-0.062,0.167 -0.222,0.279 -0.4,0.28l-20.44,0c-0,0 -0.001,0 -0.001,0c-0.236,0 -0.43,-0.194 -0.43,-0.43c0,-0.055 0.011,-0.109 0.031,-0.16l37.99,-97.64c0.065,-0.163 0.224,-0.27 0.4,-0.27l20.69,0c0.176,-0 0.335,0.107 0.4,0.27l39.08,97.64c0.02,0.051 0.031,0.105 0.031,0.16c-0,0.236 -0.194,0.43 -0.43,0.43c-0,0 -0.001,0 -0.001,-0l-20.87,0c-0.182,0.003 -0.347,-0.11 -0.41,-0.28l-8.23,-21.69c-0.063,-0.17 -0.228,-0.283 -0.41,-0.28Zm-32.62,-17.38c-0.012,0.035 -0.019,0.073 -0.019,0.11c0,0.181 0.148,0.329 0.329,0.33l25.65,-0.13c0.178,-0.004 0.323,-0.152 0.323,-0.33c-0,-0.041 -0.008,-0.082 -0.023,-0.12l-13,-34.46c-0.047,-0.13 -0.172,-0.217 -0.31,-0.217c-0.138,0 -0.263,0.087 -0.31,0.217l-12.64,34.6Z" style="fill:#007880;fill-rule:nonzero;"/><path d="M266.94,149.5l2.68,0c0.42,0 0.63,0.207 0.63,0.62l0,2.63c0,0.5 -0.25,0.75 -0.75,0.75l-2.5,0c-0.333,0 -0.5,0.167 -0.5,0.5l0,14.25c0,0.5 -0.25,0.75 -0.75,0.75l-3.88,0c-0.413,0 -0.62,-0.21 -0.62,-0.63l0,-14.37c0,-0.333 -0.167,-0.5 -0.5,-0.5l-1.75,0c-0.333,0 -0.5,-0.167 -0.5,-0.5l0,-3.01c0,-0.34 0.17,-0.507 0.51,-0.5l1.73,0.04c0.233,0 0.363,-0.117 0.39,-0.35l0.51,-4.87c0.013,-0.142 0.077,-0.277 0.18,-0.38c2.58,-2.58 5.637,-3.173 9.17,-1.78c0.333,0.133 0.463,0.377 0.39,0.73l-0.5,2.34c-0.048,0.225 -0.255,0.386 -0.49,0.38l-2.73,-0.08c-0.475,-0.009 -0.884,0.343 -0.94,0.81l-0.29,2.6c-0.047,0.38 0.123,0.57 0.51,0.57Z" style="fill:#007880;fill-rule:nonzero;"/><path d="M705.75,159l-5.25,0c-0.333,0 -0.5,-0.167 -0.5,-0.5l0,-3.25c0,-0.5 0.25,-0.75 0.75,-0.75l10.5,0c0.333,0 0.5,0.167 0.5,0.5l0,9.74c0,0.313 -0.123,0.567 -0.37,0.76c-8.2,6.41 -20.99,5.53 -24.03,-5.82c-3.02,-11.24 5.27,-20.68 17.24,-17.52c3.42,0.9 5.657,3.227 6.71,6.98c0.12,0.413 -0.033,0.657 -0.46,0.73l-4.04,0.72c-0.368,0.064 -0.737,-0.119 -0.91,-0.45c-0.82,-1.56 -1.89,-3.05 -3.71,-3.51c-15.34,-3.81 -12.27,26.22 3.64,16.11c0.287,-0.18 0.43,-0.44 0.43,-0.78l0,-2.46c0,-0.333 -0.167,-0.5 -0.5,-0.5Z" style="fill:#007880;fill-rule:nonzero;"/><path d="M231,142.71c0,-0.386 -0.314,-0.7 -0.7,-0.7l-4.1,-0c-0.386,-0 -0.7,0.314 -0.7,0.7l-0,25.6c-0,0.386 0.314,0.7 0.7,0.7l4.1,0c0.386,0 0.7,-0.314 0.7,-0.7l0,-25.6Z" style="fill:#007880;"/><path d="M385.993,142.573c-0.004,-0.332 -0.276,-0.598 -0.607,-0.594l-4.059,0.042c-0.332,0.004 -0.598,0.276 -0.594,0.607l0.034,3.299c0.004,0.332 0.276,0.598 0.607,0.594l4.059,-0.042c0.332,-0.004 0.598,-0.276 0.594,-0.607l-0.034,-3.299Z" style="fill:#007880;"/><path d="M521.49,151.24c3.42,-2.44 8.62,-3.54 10.9,0.49c1.99,3.5 1.12,12.07 1.11,16.55c0,0.395 -0.325,0.72 -0.72,0.72l-4,-0c-0.36,-0 -0.54,-0.18 -0.54,-0.54c0.02,-3.53 1.96,-16.7 -3.99,-15.42c-4.7,1.02 -3.28,11.98 -3.27,15.46c0,0.333 -0.167,0.5 -0.5,0.5l-3.98,-0c-0.5,-0 -0.75,-0.25 -0.75,-0.75l0,-25.62c0,-0.42 0.21,-0.63 0.63,-0.63l3.99,-0c0.42,-0 0.63,0.207 0.63,0.62l0,8.37c0,0.4 0.163,0.483 0.49,0.25Z" style="fill:#007880;fill-rule:nonzero;"/><path d="M592.01,142.52c0,-0.287 -0.233,-0.52 -0.52,-0.52l-4.22,0c-0.287,0 -0.52,0.233 -0.52,0.52l0,25.96c0,0.287 0.233,0.52 0.52,0.52l4.22,-0c0.287,-0 0.52,-0.233 0.52,-0.52l0,-25.96Z" style="fill:#007880;"/><path d="M648.987,142.422c-0.001,-0.238 -0.195,-0.429 -0.433,-0.427l-4.4,0.03c-0.237,0.002 -0.428,0.196 -0.427,0.433l0.026,3.64c0.001,0.238 0.195,0.429 0.433,0.427l4.4,-0.03c0.237,-0.002 0.428,-0.196 0.427,-0.433l-0.026,-3.64Z" style="fill:#007880;"/><path d="M755.24,167l0.28,1.13c0.007,0.028 0.012,0.055 0.016,0.084c0.048,0.381 -0.222,0.733 -0.597,0.781c-0.03,0.003 -0.059,0.005 -0.089,0.005l-3.35,0c-0.5,0 -0.75,-0.25 -0.75,-0.75l0,-25.5c0,-0.5 0.25,-0.75 0.75,-0.75l3.75,0c0.5,0 0.75,0.25 0.75,0.75l0,8c-0,0.003 -0,0.006 -0,0.01c-0,0.252 0.208,0.46 0.46,0.46c0.119,-0 0.234,-0.047 0.32,-0.13c2.36,-2.24 5.16,-2.657 8.4,-1.25c10.17,4.43 2.02,28.22 -9.39,16.85c-0.061,-0.059 -0.143,-0.091 -0.228,-0.091c-0.181,-0 -0.33,0.149 -0.33,0.33c0,0.024 0.003,0.048 0.008,0.071Zm5.162,-1.451l0,-0c2.375,-0.05 4.27,-2.943 4.197,-6.41c0,0 0,0 0,0c-0.073,-3.466 -2.086,-6.277 -4.461,-6.228l-0,0c-2.375,0.05 -4.27,2.943 -4.197,6.41c-0,-0 -0,-0 -0,-0c0.073,3.466 2.086,6.277 4.461,6.228Z" style="fill:#007880;fill-rule:nonzero;"/><path d="M780.61,152.5l10.03,0c0.197,0 0.36,-0.163 0.36,-0.36l0,-9.78c0,-0.197 0.163,-0.36 0.36,-0.36l4.78,0c0.197,0 0.36,0.163 0.36,0.36l0,26.28c0,0.197 -0.163,0.36 -0.36,0.36l-4.78,0c-0.197,0 -0.36,-0.163 -0.36,-0.36l0,-11.28c0,-0.197 -0.163,-0.36 -0.36,-0.36l-10.03,0c-0.197,0 -0.36,0.163 -0.36,0.36l0,11.28c0,0.197 -0.163,0.36 -0.36,0.36l-4.78,0c-0.197,0 -0.36,-0.163 -0.36,-0.36l0,-26.28c0,-0.197 0.163,-0.36 0.36,-0.36l4.78,0c0.197,0 0.36,0.163 0.36,0.36l0,9.78c0,0.197 0.163,0.36 0.36,0.36Z" style="fill:#007880;fill-rule:nonzero;"/><path d="M373.75,149.5l2.64,0c0.433,0 0.643,0.217 0.63,0.65l-0.07,2.8c-0.013,0.367 -0.203,0.55 -0.57,0.55l-2.63,-0c-0.333,-0 -0.5,0.167 -0.5,0.5l0,10.27c0.001,0.355 0.182,0.687 0.48,0.88c0.787,0.507 1.627,0.52 2.52,0.04c0.065,-0.035 0.138,-0.053 0.212,-0.053c0.23,-0 0.424,0.175 0.448,0.403l0.32,2.79c0.04,0.36 -0.117,0.583 -0.47,0.67c-11.52,2.73 -8.92,-8.24 -8.72,-14.95c0.007,-0.367 -0.173,-0.55 -0.54,-0.55l-1.5,0c-0.333,0 -0.5,-0.167 -0.5,-0.5l0,-3.05c0,-0.373 0.187,-0.537 0.56,-0.49l1.31,0.17c0.42,0.053 0.63,-0.133 0.63,-0.56l0,-2.72c0,-0.38 0.167,-0.663 0.5,-0.85l4.14,-2.36c0.407,-0.233 0.61,-0.117 0.61,0.35l0,5.51c0,0.333 0.167,0.5 0.5,0.5Z" style="fill:#007880;fill-rule:nonzero;"/><path d="M465.75,149.5l2.66,0c0.44,0 0.65,0.22 0.63,0.66l-0.15,2.79c-0.013,0.367 -0.207,0.55 -0.58,0.55l-2.55,0c-0.333,0 -0.503,0.17 -0.51,0.51c-0.007,3.087 -0.01,6.163 -0.01,9.23c-0,1.95 1.08,3.05 2.98,1.89c0.387,-0.24 0.607,-0.137 0.66,0.31l0.35,2.81c0.047,0.38 -0.113,0.617 -0.48,0.71c-11.56,2.86 -8.78,-8.41 -8.78,-14.97c-0,-0.327 -0.163,-0.49 -0.49,-0.49l-1.23,0c-0.5,0 -0.75,-0.25 -0.75,-0.75l-0,-2.76c-0,-0.347 0.17,-0.513 0.51,-0.5l1.3,0.04c0.01,0 0.02,0.001 0.03,0.001c0.362,-0 0.66,-0.298 0.66,-0.66l-0,-2.521c0,-0.326 0.176,-0.629 0.46,-0.79l4.2,-2.41c0.393,-0.227 0.59,-0.113 0.59,0.34l-0,5.51c-0,0.333 0.167,0.5 0.5,0.5Z" style="fill:#007880;fill-rule:nonzero;"/><path d="M241.27,151.48c-0.005,0.024 -0.008,0.049 -0.008,0.074c0,0.203 0.167,0.37 0.37,0.37c0.101,0 0.198,-0.041 0.268,-0.114c4.57,-4.59 12.47,-3.72 12.57,4.11c0.053,4.133 0.057,8.27 0.01,12.41c-0.007,0.447 -0.233,0.67 -0.68,0.67l-4,0c-0.373,0 -0.56,-0.187 -0.56,-0.56c0.01,-2.35 1.99,-19.67 -5.36,-14.78c-2.84,1.9 -1.89,11.64 -1.88,14.83c0,0.34 -0.17,0.51 -0.51,0.51l-4.24,0c-0.333,0 -0.5,-0.167 -0.5,-0.5l0,-18.5c0,-0.333 0.167,-0.5 0.5,-0.5l3.82,0c0.393,0 0.553,0.193 0.48,0.58l-0.28,1.4Z" style="fill:#007880;fill-rule:nonzero;"/><path d="M292.83,159.24c0,5.617 -4.623,10.24 -10.24,10.24c-5.617,-0 -10.24,-4.623 -10.24,-10.24c0,-5.617 4.623,-10.24 10.24,-10.24c5.617,0 10.24,4.623 10.24,10.24Zm-10.31,6.26c2.644,0 4.82,-2.826 4.82,-6.26c-0,-3.434 -2.176,-6.26 -4.82,-6.26c-2.644,0 -4.82,2.826 -4.82,6.26c0,3.434 2.176,6.26 4.82,6.26Z" style="fill:#007880;fill-rule:nonzero;"/><path d="M301.98,151.56c1.667,-2.56 3.907,-3.163 6.72,-1.81c0.347,0.167 0.463,0.433 0.35,0.8l-1.04,3.46c-0.12,0.407 -0.367,0.507 -0.74,0.3c-6.8,-3.85 -5.37,11.45 -5.17,14.04c0.001,0.017 0.002,0.033 0.002,0.05c0,0.329 -0.271,0.6 -0.6,0.6c-0.001,0 -0.001,0 -0.002,0l-4.25,-0c-0.333,-0 -0.5,-0.167 -0.5,-0.5l0,-18.5c0,-0.333 0.167,-0.5 0.5,-0.5l3.82,-0c0.002,-0 0.004,-0 0.006,-0c0.257,-0 0.47,0.212 0.47,0.47c-0,0.04 -0.006,0.081 -0.016,0.12l-0.29,1.15c-0.007,0.03 -0.01,0.061 -0.01,0.091c-0,0.225 0.185,0.41 0.41,0.41c0.136,0 0.264,-0.068 0.34,-0.181Z" style="fill:#007880;fill-rule:nonzero;"/><path d="M316.61,151.49c3.613,-3.313 7.183,-3.32 10.71,-0.02c0.287,0.273 0.577,0.277 0.87,0.01c4.2,-3.74 11.19,-3.26 11.76,3.08c0.173,1.96 0.163,6.577 -0.03,13.85c-0.013,0.393 -0.217,0.59 -0.61,0.59l-4.01,0c-0.34,0 -0.51,-0.17 -0.51,-0.51c-0.067,-4.1 -0.093,-8.177 -0.08,-12.23c0.01,-5.14 -6.14,-3.74 -6.39,0.82c-0.087,1.607 -0.103,5.403 -0.05,11.39c-0,0.353 -0.173,0.53 -0.52,0.53l-4.23,-0c-0.269,-0 -0.49,-0.221 -0.49,-0.49c-0.067,-4.113 -0.057,-8.193 0.03,-12.24c0.12,-4.94 -6.2,-4.09 -6.43,0.92c-0.167,3.747 -0.2,7.5 -0.1,11.26c0.013,0.367 -0.163,0.55 -0.53,0.55l-4,0c-0.5,0 -0.75,-0.25 -0.75,-0.75l0,-18.25c0,-0.333 0.167,-0.5 0.5,-0.5l3.62,0c0.42,0 0.63,0.207 0.63,0.62l0,1.11c0,0.547 0.203,0.633 0.61,0.26Z" style="fill:#007880;fill-rule:nonzero;"/><path d="M356.24,167.06c-3.77,4.02 -12.26,2.92 -11.94,-3.57c0.28,-5.69 7.23,-5.96 11.3,-6.92c0.313,-0.073 0.503,-0.27 0.57,-0.59c0.77,-3.68 -4.81,-4.06 -6.26,-0.9c-0.133,0.287 -0.353,0.403 -0.66,0.35l-3.51,-0.61c-0.34,-0.06 -0.48,-0.26 -0.42,-0.6c1.38,-7.65 16.81,-6.4 16.26,0.28c-0.387,4.693 -0.177,9.347 0.63,13.96c0.067,0.36 -0.083,0.54 -0.45,0.54l-3.73,0c-0.373,0 -0.603,-0.18 -0.69,-0.54l-0.28,-1.18c-0.05,-0.218 -0.245,-0.374 -0.468,-0.374c-0.134,0 -0.261,0.056 -0.352,0.154Zm-1.21,-7.05l-5.14,1.85c-0.451,0.164 -0.69,0.667 -0.53,1.12l0.05,0.14c0.645,1.79 2.635,2.738 4.41,2.1l0.32,-0.11c1.775,-0.64 2.705,-2.639 2.06,-4.43l-0.05,-0.14c-0.164,-0.451 -0.667,-0.69 -1.12,-0.53Z" style="fill:#007880;fill-rule:nonzero;"/><path d="M410.84,159.25c-0,5.623 -4.627,10.25 -10.25,10.25c-5.623,0 -10.25,-4.627 -10.25,-10.25c-0,-5.623 4.627,-10.25 10.25,-10.25c5.623,0 10.25,4.627 10.25,10.25Zm-10.33,6.25c2.644,0 4.82,-2.821 4.82,-6.25c-0,-3.429 -2.176,-6.25 -4.82,-6.25c-2.644,0 -4.82,2.821 -4.82,6.25c0,3.429 2.176,6.25 4.82,6.25Z" style="fill:#007880;fill-rule:nonzero;"/><path d="M419.72,151.81c1.3,-0.87 2.31,-1.95 3.77,-2.37c11.94,-3.41 8.97,13.14 9.02,18.98c0.007,0.387 -0.187,0.58 -0.58,0.58l-4.16,0c-0.32,0 -0.48,-0.16 -0.48,-0.48l-0.12,-13.4c-0.007,-0.264 -0.114,-0.518 -0.3,-0.71c-3.33,-3.32 -6.81,-0.45 -6.84,3.68c-0.027,3.46 -0.037,6.927 -0.03,10.4c0,0.34 -0.17,0.51 -0.51,0.51l-4.24,0c-0.333,0 -0.5,-0.167 -0.5,-0.5l0,-18.5c0,-0.333 0.167,-0.5 0.5,-0.5l3.82,0c0.387,0 0.537,0.19 0.45,0.57l-0.3,1.39c-0.12,0.533 0.047,0.65 0.5,0.35Z" style="fill:#007880;fill-rule:nonzero;"/><path d="M438.44,152.19c2.88,-4.94 14.11,-4.29 15.72,1.78c0.1,0.367 -0.04,0.577 -0.42,0.63l-3.65,0.49c-0.373,0.047 -0.67,-0.083 -0.89,-0.39c-1.607,-2.207 -3.74,-2.653 -6.4,-1.34c-0.409,0.202 -0.67,0.62 -0.67,1.076c0,0.565 0.398,1.056 0.95,1.174c2.673,0.573 5.363,1.353 8.07,2.34c6.78,2.48 4.31,9.82 -1.38,11.16c-4.79,1.12 -10.88,0.16 -12.8,-5.07c-0.127,-0.333 -0.013,-0.53 0.34,-0.59l3.77,-0.57c0.38,-0.06 0.677,0.07 0.89,0.39c1.847,2.707 4.323,3.283 7.43,1.73c0.502,-0.25 0.82,-0.764 0.82,-1.325c0,-0.71 -0.511,-1.325 -1.21,-1.455c-4.35,-0.8 -14.74,-2.88 -10.57,-10.03Z" style="fill:#007880;fill-rule:nonzero;"/><path d="M476.56,161.22c0.19,4.07 5.69,6.38 7.5,1.97c0.127,-0.313 0.353,-0.44 0.68,-0.38l4.21,0.72c0.373,0.06 0.473,0.26 0.3,0.6c-2.313,4.587 -6.093,6.24 -11.34,4.96c-9.75,-2.38 -8.43,-19.59 1.51,-19.91c6.88,-0.227 10.303,3.467 10.27,11.08c-0.007,0.327 -0.173,0.49 -0.5,0.49l-12.18,-0c-0.313,-0 -0.463,0.157 -0.45,0.47Zm0.49,-3.71l6.92,-0.02c0.236,-0 0.43,-0.194 0.43,-0.43l-0,-0.15c-0.005,-2.103 -1.733,-3.83 -3.83,-3.83l-0.127,0c-2.101,0.004 -3.827,1.74 -3.823,3.847l-0,0.153c-0,0.236 0.194,0.43 0.43,0.43Z" style="fill:#007880;fill-rule:nonzero;"/><path d="M493.87,162.34c-3.13,-12.77 13.02,-18.91 17.49,-7.61c0.021,0.055 0.032,0.114 0.032,0.173c0,0.242 -0.182,0.448 -0.422,0.477l-4.1,0.51c-0.304,0.039 -0.598,-0.135 -0.71,-0.42c-1.007,-2.48 -2.71,-3.197 -5.11,-2.15c-4.42,1.94 -2.52,16.47 4.47,11.15c0.233,-0.18 0.387,-0.413 0.46,-0.7l0.38,-1.47c0.1,-0.387 0.35,-0.553 0.75,-0.5l3.93,0.57c0.023,0.004 0.047,0.008 0.069,0.014c0.372,0.097 0.599,0.478 0.504,0.845c-0.006,0.024 -0.014,0.048 -0.023,0.071c-3.25,8.85 -15.48,8.17 -17.72,-0.96Z" style="fill:#007880;fill-rule:nonzero;"/><path d="M544.86,151.85c3.487,-3.48 7.227,-3.757 11.22,-0.83c0.307,0.227 0.513,0.523 0.62,0.89c1.45,5.02 0.82,11.17 0.79,16.41c0,0.453 -0.227,0.68 -0.68,0.68l-4.02,0c-0.387,0 -0.577,-0.193 -0.57,-0.58c0.08,-6.207 0.07,-10.32 -0.03,-12.34c-0.23,-4.79 -6.84,-3.64 -7.12,1.24c-0.087,1.627 -0.103,5.343 -0.05,11.15c-0,0.353 -0.173,0.53 -0.52,0.53l-4.25,0c-0.333,0 -0.5,-0.167 -0.5,-0.5l-0,-18.5c-0,-0.333 0.167,-0.5 0.5,-0.5l3.82,0c0.387,0 0.537,0.19 0.45,0.57l-0.31,1.43c-0.015,0.063 -0.013,0.129 0.005,0.191c0.06,0.2 0.277,0.314 0.482,0.254c0.061,-0.019 0.117,-0.051 0.163,-0.095Z" style="fill:#007880;fill-rule:nonzero;"/><path d="M581.84,159.24c0,5.623 -4.627,10.25 -10.25,10.25c-5.623,0 -10.25,-4.627 -10.25,-10.25c0,-5.623 4.627,-10.25 10.25,-10.25c5.623,0 10.25,4.627 10.25,10.25Zm-10.362,6.24c2.633,0.009 4.81,-2.796 4.822,-6.213c0,-0 0,-0 0,-0c0.012,-3.418 -2.145,-6.238 -4.778,-6.247c-0,0 -0,0 -0,-0c-2.633,-0.009 -4.81,2.796 -4.822,6.213c-0,0 -0,0 -0,0c-0.012,3.418 2.145,6.238 4.778,6.247c0,-0 0,-0 0,0Z" style="fill:#007880;fill-rule:nonzero;"/><path d="M615.84,159.24c0,5.623 -4.627,10.25 -10.25,10.25c-5.623,0 -10.25,-4.627 -10.25,-10.25c0,-5.623 4.627,-10.25 10.25,-10.25c5.623,0 10.25,4.627 10.25,10.25Zm-10.318,6.25c-0,-0 -0,-0 -0,-0c2.633,-0.009 4.79,-2.829 4.778,-6.247c0,0 0,0 0,0c-0.012,-3.417 -2.189,-6.222 -4.822,-6.213c0,0 0,0 0,0c-2.633,0.009 -4.79,2.829 -4.778,6.247c-0,-0 -0,-0 -0,-0c0.012,3.417 2.189,6.222 4.822,6.213Z" style="fill:#007880;fill-rule:nonzero;"/><path d="M632.55,167.02c-8.72,7.01 -14.9,-4.43 -12.47,-11.87c2.03,-6.18 8,-8.26 13.13,-3.68c0.36,0.327 0.54,0.247 0.54,-0.24l0,-1.1c0,-0.42 0.21,-0.63 0.63,-0.63l3.6,0c0.32,0 0.48,0.16 0.48,0.48c0.06,5.19 1.32,20.39 -1.61,24.18c-3.54,4.56 -16.32,4.18 -16.52,-3.27c-0.013,-0.34 0.15,-0.493 0.49,-0.46l4.61,0.44c0.347,0.033 0.617,0.2 0.81,0.5c2.54,3.95 8.38,1.14 6.79,-4.2c-0.087,-0.287 -0.247,-0.337 -0.48,-0.15Zm-3.601,-2.02l0,0c2.37,0.008 4.329,-2.702 4.341,-6.005l0,0c0.012,-3.302 -1.929,-6.027 -4.299,-6.035l-0,-0c-2.37,-0.008 -4.329,2.702 -4.341,6.005l-0,-0c-0.012,3.302 1.929,6.027 4.299,6.035Z" style="fill:#007880;fill-rule:nonzero;"/><path d="M658.56,161.22c0.19,4.08 5.71,6.39 7.51,1.93c0.127,-0.307 0.357,-0.433 0.69,-0.38l3.98,0.71c0.393,0.067 0.52,0.287 0.38,0.66c-4.32,11.34 -22.57,4.06 -16.86,-9.88c4.09,-9.95 18.42,-5.11 17.36,5.94c-0.026,0.31 -0.289,0.551 -0.6,0.55l-12.01,-0c-0.313,-0 -0.463,0.157 -0.45,0.47Zm0.5,-3.72l6.92,-0c0.236,-0 0.43,-0.194 0.43,-0.43l0,-0.13c0,-2.107 -1.724,-3.84 -3.82,-3.84l-0.14,-0c-2.096,-0 -3.82,1.733 -3.82,3.84l0,0.13c0,0.236 0.194,0.43 0.43,0.43Z" style="fill:#007880;fill-rule:nonzero;"/><path d="M722.61,151.49c3.613,-3.333 7.18,-3.337 10.7,-0.01c0.293,0.273 0.587,0.277 0.88,0.01c3.38,-3.02 8.42,-3.63 10.77,0.27c1.95,3.22 1.06,12.71 1.02,16.74c0,0.333 -0.167,0.5 -0.5,0.5l-4.21,-0c-0.327,-0 -0.49,-0.16 -0.49,-0.48l-0.09,-13.47c-0.007,-0.322 -0.132,-0.625 -0.35,-0.85c-2.86,-2.97 -5.75,-0.2 -5.88,3.13c-0.153,3.713 -0.233,7.44 -0.24,11.18c0,0.327 -0.163,0.49 -0.49,0.49l-4.21,-0c-0.333,-0 -0.503,-0.167 -0.51,-0.5c-0.027,-4.347 -0.027,-8.68 0,-13c0.02,-2.78 -4.2,-3.35 -5.69,-1.03c-1.52,2.39 -0.87,10.94 -0.79,13.98c0.013,0.367 -0.163,0.55 -0.53,0.55l-4,-0c-0.5,-0 -0.75,-0.25 -0.75,-0.75l0,-18.25c0,-0.333 0.167,-0.5 0.5,-0.5l3.63,-0c0.413,-0 0.62,0.207 0.62,0.62l0,1.11c0,0.553 0.203,0.64 0.61,0.26Z" style="fill:#007880;fill-rule:nonzero;"/><path d="M385.99,149.81c0,-0.171 -0.139,-0.31 -0.31,-0.31l-4.62,0c-0.171,0 -0.31,0.139 -0.31,0.31l0,18.88c0,0.171 0.139,0.31 0.31,0.31l4.62,0c0.171,0 0.31,-0.139 0.31,-0.31l0,-18.88Z" style="fill:#007880;"/><path d="M648.99,149.81c0,-0.171 -0.139,-0.31 -0.31,-0.31l-4.62,0c-0.171,0 -0.31,0.139 -0.31,0.31l-0,18.88c-0,0.171 0.139,0.31 0.31,0.31l4.62,0c0.171,0 0.31,-0.139 0.31,-0.31l0,-18.88Z" style="fill:#007880;"/></svg>