<?xml version="1.0" encoding="UTF-8" standalone="no"?><!DOCTYPE svg PUBLIC "-//W3C//DTD SVG 1.1//EN" "http://www.w3.org/Graphics/SVG/1.1/DTD/svg11.dtd"><svg width="100%" height="100%" viewBox="0 0 794 276" version="1.1" xmlns="http://www.w3.org/2000/svg" xmlns:xlink="http://www.w3.org/1999/xlink" xml:space="preserve" xmlns:serif="http://www.serif.com/" style="fill-rule:evenodd;clip-rule:evenodd;stroke-linejoin:round;stroke-miterlimit:2;"><g><path d="M793.681,120.303c-0.842,-4.709 -0.382,-8.267 -26.458,-30.534c-10.521,-8.984 -21.909,-12.775 -31.957,-16.119l-0.917,-0.306c-24.097,-8.031 -145.382,-48.432 -166.683,-54.986c-2.023,-0.623 -3.94,-1.22 -5.781,-1.794c-18.649,-5.808 -29.905,-9.314 -63.995,-12.154c-38.734,-3.228 -65.089,-4.733 -93.391,-3.447c-38.788,1.763 -64.317,13.632 -69.04,15.993c-3.894,1.947 -99.57,51.285 -112.171,57.783l-0.964,0.073c-11.232,0.842 -19.685,1.345 -27.143,1.788c-19.177,1.141 -30.751,1.83 -60.896,6.854c-40.519,6.753 -71.531,17.848 -73.81,18.676c-2.699,0.88 -40.936,13.742 -53.59,39.051c-13.376,26.753 -4.837,42.659 5.122,50.737c5.927,4.807 29.536,14.245 69.032,14.245c5.152,0 2.794,-2.893 0,-3.434c-53.233,-10.303 -61.256,-15.442 -64.972,-20.6c-3.716,-5.158 -11.232,-13.81 0.033,-36.34c10.897,-21.795 47.266,-33.766 47.632,-33.884l0.184,-0.063c0.128,-0.047 5.505,-1.992 14.568,-4.731c-9.3,4.757 -20.867,12.573 -28.355,20.061c-13.277,13.277 -19.004,25.643 -15.454,29.192c5.151,5.152 16.717,0.297 29.192,-13.737c13.738,-15.455 15.455,-36.062 29.193,-39.496c-0.048,-0.047 26.632,-6.8 42.918,-9.515c29.608,-4.934 40.337,-5.572 59.814,-6.73c7.164,-0.426 15.241,-0.907 25.816,-1.689c6.169,3.04 58.628,9.348 79.234,-2.672c2.459,-1.434 1.106,-2.049 -1.717,-1.717c-29.193,3.434 -58.385,1.717 -62.56,-1.322c26.89,-13.866 100.202,-51.665 103.5,-53.314c2.696,-1.347 27.415,-13.213 64.902,-14.916c27.742,-1.26 53.762,0.229 92.068,3.422c32.962,2.746 43.2,5.935 61.786,11.724c1.852,0.576 3.78,1.177 5.815,1.803c21.193,6.521 142.377,46.888 166.455,54.914l0.921,0.307c9.601,3.196 19.528,6.5 28.52,14.178c4.641,3.963 10.613,8.921 14.259,12.396c-38.031,-19.479 -124.551,-18.889 -139.093,-18.889c-2.845,-0 -2.838,3.235 -0,3.434c97.88,6.869 127.662,20.863 133.888,24.185l0.528,0.267c5.059,2.261 10.396,5.383 12.287,7.112c0.004,2.066 0.018,3.848 0.024,4.542c-0,0.046 0.013,0.089 0.015,0.134c-1.398,12.146 -7.451,39.643 -10.432,43.402c-4.451,4.449 -11.686,11.463 -28.126,16.521c-22.324,6.869 -69.917,8.603 -70.406,8.587c-2.831,-0.101 -5.221,1.942 0,3.434c12.021,3.434 61.82,-0 72.744,-2.794c18.921,-4.839 27.834,-13.224 33.072,-18.463c5.03,-5.03 11.78,-34.175 13.293,-49.713c0.089,-0.387 1.268,-10.49 1.096,-11.456Z" style="fill:#231f20;fill-rule:nonzero;"/><path d="M154.235,135.37l7.149,-0l-3.994,29.385l33.85,-29.385l10.415,-0l-39.236,33.912l33.962,38.594l-9.23,-0l-30.727,-34.921l-4.896,34.921l-7.1,-0l9.807,-72.506Z" style="fill:#f36f21;fill-rule:nonzero;"/><path d="M230.37,202.946c4.418,-0 8.445,-1.044 12.078,-3.132c3.637,-2.089 6.518,-5.09 8.643,-9.004c2.128,-3.914 3.195,-8.172 3.195,-12.776c-0,-5.546 -1.753,-10.059 -5.255,-13.538c-3.505,-3.48 -8.054,-5.222 -13.651,-5.222c-6.582,0 -12.214,2.385 -16.895,7.146c-4.68,4.768 -7.021,10.617 -7.021,17.547c0,5.689 1.751,10.271 5.254,13.755c3.504,3.483 8.053,5.224 13.652,5.224Zm26.395,4.93l-6.952,-0l1.059,-8.062c-6.196,6.294 -13.287,9.442 -21.274,9.442c-7.264,-0 -13.238,-2.348 -17.917,-7.047c-4.679,-4.699 -7.019,-10.749 -7.019,-18.139c0,-8.544 3.051,-15.883 9.152,-22.01c6.101,-6.13 13.281,-9.194 21.536,-9.194c4.477,-0 8.398,0.935 11.768,2.805c3.374,1.869 6.207,4.79 8.508,8.759l1.241,-10.183l7.149,0l-7.251,53.629Z" style="fill:#f36f21;fill-rule:nonzero;"/><path d="M283.141,154.247l6.894,0l-3.243,22.436c-0.953,6.605 -1.431,10.786 -1.431,12.55c-0,4.012 1.256,7.28 3.772,9.814c2.515,2.534 5.834,3.801 9.96,3.801c3.432,-0 6.415,-0.986 8.942,-2.958c2.53,-1.971 4.338,-4.549 5.422,-7.737c0.544,-1.61 1.19,-5.308 1.943,-11.092l3.625,-26.814l6.762,0l-2.603,20.308c-1.241,9.716 -2.56,16.613 -3.951,20.698c-1.387,4.086 -3.866,7.442 -7.43,10.067c-3.567,2.625 -7.912,3.936 -13.035,3.936c-5.834,-0 -10.614,-1.899 -14.331,-5.692c-3.72,-3.798 -5.582,-8.537 -5.582,-14.222c0,-2.267 0.204,-4.911 0.613,-7.93l0.493,-4.736l0.27,-2.019l2.91,-20.41Z" style="fill:#f36f21;fill-rule:nonzero;"/><path d="M364.859,135.37l-0.935,6.554c-2.519,-2.366 -4.889,-3.549 -7.109,-3.549c-1.409,0 -2.618,0.668 -3.629,2.004c-1.008,1.333 -1.796,4.039 -2.366,8.11l-0.774,5.758l11.264,0l-0.738,6.013l-11.333,0l-6.401,47.616l-6.765,-0l6.44,-47.616l-6.44,0l0.741,-6.013l6.514,0l0.639,-4.732c0.799,-5.554 1.65,-9.267 2.548,-11.14c0.902,-1.873 2.235,-3.378 3.998,-4.509c1.767,-1.136 3.717,-1.702 5.85,-1.702c2.8,0 5.63,1.07 8.496,3.206Z" style="fill:#f36f21;fill-rule:nonzero;"/><path d="M372.753,154.247l6.747,0l-1.015,7.594c2.078,-2.793 4.732,-4.987 7.963,-6.583c3.235,-1.596 6.481,-2.392 9.749,-2.392c4.057,-0 7.65,1.202 10.782,3.601c2.41,1.869 4.206,4.666 5.393,8.375c2.443,-3.808 5.451,-6.758 9.03,-8.846c3.578,-2.085 7.214,-3.13 10.909,-3.13c4.981,-0 9.07,1.592 12.268,4.78c3.199,3.184 4.798,7.306 4.798,12.359c0,2.3 -0.215,5.112 -0.646,8.438l-3.812,29.433l-6.762,-0l3.48,-25.73c0.73,-5.39 1.091,-9.333 1.091,-11.83c-0,-3.122 -1.026,-5.7 -3.081,-7.737c-2.056,-2.038 -4.758,-3.06 -8.11,-3.06c-3.552,-0 -6.857,1.11 -9.913,3.326c-3.059,2.216 -5.228,4.834 -6.51,7.854c-1.281,3.02 -2.242,6.835 -2.881,11.447l-3.556,25.73l-6.85,-0l3.98,-29.422c0.424,-3.125 0.636,-5.688 0.636,-7.697c-0,-3.446 -1.03,-6.207 -3.082,-8.281c-2.056,-2.066 -4.739,-3.103 -8.051,-3.103c-2.782,0 -5.451,0.65 -8.003,1.946c-2.549,1.3 -4.638,2.998 -6.262,5.101c-1.621,2.103 -2.834,4.706 -3.633,7.813c-0.8,3.104 -1.369,5.908 -1.702,8.405l-3.366,25.238l-6.843,-0l7.252,-53.629Z" style="fill:#f36f21;fill-rule:nonzero;"/><path d="M487.08,202.946c4.418,-0 8.445,-1.044 12.078,-3.132c3.636,-2.089 6.517,-5.09 8.642,-9.004c2.129,-3.914 3.195,-8.172 3.195,-12.776c-0,-5.546 -1.753,-10.059 -5.254,-13.538c-3.505,-3.48 -8.055,-5.222 -13.652,-5.222c-6.579,0 -12.213,2.385 -16.894,7.146c-4.681,4.768 -7.021,10.617 -7.021,17.547c0,5.689 1.752,10.271 5.254,13.755c3.505,3.483 8.054,5.224 13.652,5.224Zm26.394,4.93l-6.952,-0l1.059,-8.062c-6.196,6.294 -13.287,9.442 -21.272,9.442c-7.266,-0 -13.239,-2.348 -17.916,-7.047c-4.681,-4.699 -7.022,-10.749 -7.022,-18.139c0,-8.544 3.053,-15.883 9.154,-22.01c6.101,-6.13 13.279,-9.194 21.535,-9.194c4.476,-0 8.398,0.935 11.768,2.805c3.373,1.869 6.207,4.79 8.507,8.759l1.241,-10.183l7.15,0l-7.252,53.629Z" style="fill:#f36f21;fill-rule:nonzero;"/><path d="M536.648,154.247l6.613,0l-1.103,8.343c5.451,-6.481 11.797,-9.724 19.027,-9.724c5.557,-0 10.033,1.702 13.436,5.101c3.403,3.399 5.104,7.974 5.104,13.721c-0,2.301 -0.372,6.164 -1.102,11.589l-3.33,24.599l-6.762,-0l3.33,-24.595c0.708,-5.258 1.066,-9.139 1.066,-11.647c0,-3.757 -1.139,-6.788 -3.418,-9.095c-2.278,-2.308 -5.265,-3.462 -8.96,-3.462c-3.629,0 -7.003,0.939 -10.121,2.808c-3.118,1.877 -5.531,4.414 -7.248,7.616c-1.716,3.202 -3.034,8.27 -3.95,15.2l-3.071,23.175l-6.766,-0l7.255,-53.629Z" style="fill:#f36f21;fill-rule:nonzero;"/><path d="M598.212,154.247l6.616,0l-1.107,8.343c5.451,-6.481 11.797,-9.724 19.03,-9.724c5.554,-0 10.03,1.702 13.433,5.101c3.403,3.399 5.105,7.974 5.105,13.721c0,2.301 -0.369,6.164 -1.103,11.589l-3.326,24.599l-6.766,-0l3.33,-24.595c0.708,-5.258 1.066,-9.139 1.066,-11.647c-0,-3.757 -1.139,-6.788 -3.414,-9.095c-2.278,-2.308 -5.265,-3.462 -8.96,-3.462c-3.629,0 -7.003,0.939 -10.121,2.808c-3.118,1.877 -5.535,4.414 -7.251,7.616c-1.717,3.202 -3.035,8.27 -3.951,15.2l-3.071,23.175l-6.762,-0l7.252,-53.629Z" style="fill:#f36f21;fill-rule:nonzero;"/><path d="M84.199,237.688l3.834,-0l-0,14.108l15.028,-14.108l5.048,-0l-18.057,16.868l19.463,20.728l-5.004,-0l-16.478,-17.51l-0,17.51l-3.834,-0l-0,-37.596Z" style="fill:#231f20;fill-rule:nonzero;"/><rect x="114" y="236.742" width="3.579" height="38.542" style="fill:#231f20;fill-rule:nonzero;"/><path d="M138.422,250.211c-1.992,0 -3.831,0.49 -5.516,1.468c-1.685,0.979 -3.025,2.355 -4.02,4.122c-0.994,1.771 -1.493,3.645 -1.493,5.616c-0,1.961 0.502,3.83 1.506,5.619c1.004,1.786 2.353,3.177 4.046,4.174c1.694,0.996 3.51,1.493 5.451,1.493c1.957,0 3.812,-0.493 5.566,-1.483c1.753,-0.985 3.1,-2.322 4.046,-4.005c0.944,-1.687 1.417,-3.582 1.417,-5.695c0,-3.214 -1.059,-5.905 -3.179,-8.066c-2.119,-2.162 -4.726,-3.243 -7.824,-3.243Zm14.3,-2.734l0,27.807l-3.527,-0l0,-4.779c-1.499,1.822 -3.183,3.195 -5.048,4.115c-1.866,0.92 -3.907,1.38 -6.122,1.38c-3.936,0 -7.296,-1.428 -10.082,-4.279c-2.786,-2.856 -4.179,-6.328 -4.179,-10.417c-0,-4.006 1.406,-7.43 4.217,-10.275c2.811,-2.844 6.194,-4.268 10.147,-4.268c2.284,-0 4.348,0.486 6.198,1.457c1.849,0.971 3.472,2.428 4.869,4.37l0,-5.111l3.527,-0Z" style="fill:#231f20;fill-rule:nonzero;"/><path d="M174.753,250.518l-2.3,2.377c-1.913,-1.858 -3.785,-2.786 -5.612,-2.786c-1.161,-0 -2.158,0.384 -2.985,1.15c-0.829,0.767 -1.243,1.662 -1.243,2.684c0,0.902 0.341,1.763 1.024,2.581c0.683,0.837 2.118,1.815 4.303,2.94c2.663,1.38 4.474,2.709 5.429,3.987c0.94,1.296 1.41,2.753 1.41,4.37c0,2.282 -0.802,4.217 -2.407,5.802c-1.604,1.585 -3.609,2.377 -6.015,2.377c-1.605,-0 -3.136,-0.351 -4.595,-1.048c-1.459,-0.697 -2.667,-1.661 -3.622,-2.888l2.249,-2.556c1.828,2.063 3.766,3.093 5.815,3.093c1.435,0 2.656,-0.46 3.664,-1.381c1.007,-0.92 1.511,-2 1.511,-3.245c-0,-1.023 -0.332,-1.936 -0.998,-2.735c-0.667,-0.785 -2.169,-1.771 -4.508,-2.965c-2.51,-1.296 -4.219,-2.574 -5.122,-3.833c-0.906,-1.259 -1.359,-2.703 -1.359,-4.32c-0,-2.114 0.721,-3.867 2.164,-5.265c1.442,-1.399 3.264,-2.096 5.466,-2.096c2.559,-0 5.137,1.252 7.731,3.757Z" style="fill:#231f20;fill-rule:nonzero;"/><path d="M195.072,250.518l-2.3,2.377c-1.913,-1.858 -3.785,-2.786 -5.612,-2.786c-1.161,-0 -2.158,0.384 -2.985,1.15c-0.829,0.767 -1.243,1.662 -1.243,2.684c0,0.902 0.341,1.763 1.024,2.581c0.683,0.837 2.118,1.815 4.303,2.94c2.663,1.38 4.474,2.709 5.429,3.987c0.94,1.296 1.41,2.753 1.41,4.37c0,2.282 -0.802,4.217 -2.407,5.802c-1.604,1.585 -3.609,2.377 -6.015,2.377c-1.605,-0 -3.136,-0.351 -4.595,-1.048c-1.459,-0.697 -2.667,-1.661 -3.622,-2.888l2.249,-2.556c1.828,2.063 3.766,3.093 5.815,3.093c1.435,0 2.656,-0.46 3.664,-1.381c1.007,-0.92 1.511,-2 1.511,-3.245c-0,-1.023 -0.332,-1.936 -0.998,-2.735c-0.667,-0.785 -2.169,-1.771 -4.508,-2.965c-2.51,-1.296 -4.219,-2.574 -5.122,-3.833c-0.906,-1.259 -1.359,-2.703 -1.359,-4.32c-0,-2.114 0.721,-3.867 2.164,-5.265c1.442,-1.399 3.264,-2.096 5.466,-2.096c2.559,-0 5.137,1.252 7.731,3.757Z" style="fill:#231f20;fill-rule:nonzero;"/><path d="M200.874,247.477l3.578,-0l-0,27.807l-3.578,-0l-0,-27.807Zm1.776,-11.451c0.814,0 1.51,0.289 2.087,0.869c0.577,0.581 0.865,1.278 0.865,2.096c0,0.8 -0.288,1.49 -0.865,2.07c-0.577,0.581 -1.273,0.869 -2.087,0.869c-0.798,0 -1.484,-0.288 -2.061,-0.869c-0.577,-0.58 -0.865,-1.27 -0.865,-2.07c-0,-0.818 0.288,-1.515 0.865,-2.096c0.577,-0.58 1.263,-0.869 2.061,-0.869Z" style="fill:#231f20;fill-rule:nonzero;"/><path d="M225.87,250.518l-2.3,2.377c-1.914,-1.858 -3.785,-2.786 -5.612,-2.786c-1.161,-0 -2.158,0.384 -2.985,1.15c-0.829,0.767 -1.243,1.662 -1.243,2.684c-0,0.902 0.341,1.763 1.024,2.581c0.683,0.837 2.118,1.815 4.303,2.94c2.663,1.38 4.474,2.709 5.429,3.987c0.94,1.296 1.41,2.753 1.41,4.37c-0,2.282 -0.802,4.217 -2.407,5.802c-1.604,1.585 -3.609,2.377 -6.015,2.377c-1.605,-0 -3.136,-0.351 -4.595,-1.048c-1.459,-0.697 -2.667,-1.661 -3.622,-2.888l2.249,-2.556c1.828,2.063 3.766,3.093 5.815,3.093c1.435,0 2.656,-0.46 3.664,-1.381c1.007,-0.92 1.511,-2 1.511,-3.245c0,-1.023 -0.332,-1.936 -0.998,-2.735c-0.667,-0.785 -2.169,-1.771 -4.508,-2.965c-2.51,-1.296 -4.219,-2.574 -5.122,-3.833c-0.906,-1.259 -1.359,-2.703 -1.359,-4.32c0,-2.114 0.721,-3.867 2.164,-5.265c1.442,-1.399 3.264,-2.096 5.466,-2.096c2.559,-0 5.137,1.252 7.731,3.757Z" style="fill:#231f20;fill-rule:nonzero;"/><path d="M259.2,253.253l-2.837,1.763c-2.45,-3.253 -5.794,-4.881 -10.033,-4.881c-3.389,0 -6.2,1.088 -8.438,3.268c-2.239,2.179 -3.356,4.823 -3.356,7.941c-0,2.023 0.515,3.929 1.545,5.718c1.029,1.785 2.442,3.173 4.235,4.158c1.796,0.99 3.808,1.483 6.039,1.483c4.086,0 7.419,-1.629 10.008,-4.882l2.837,1.866c-1.329,2.001 -3.114,3.553 -5.356,4.659c-2.238,1.103 -4.791,1.654 -7.653,1.654c-4.396,0 -8.044,-1.398 -10.939,-4.192c-2.899,-2.793 -4.345,-6.192 -4.345,-10.197c-0,-2.691 0.675,-5.193 2.03,-7.504c1.355,-2.307 3.217,-4.107 5.586,-5.404c2.366,-1.296 5.017,-1.942 7.949,-1.942c1.84,-0 3.615,0.281 5.327,0.843c1.712,0.563 3.166,1.297 4.36,2.198c1.19,0.902 2.205,2.052 3.041,3.451Z" style="fill:#231f20;fill-rule:nonzero;"/><path d="M266.075,236.742l3.579,0l-0,15.719c1.445,-1.91 3.041,-3.334 4.779,-4.283c1.738,-0.942 3.618,-1.417 5.648,-1.417c2.078,-0 3.922,0.529 5.532,1.585c1.61,1.055 2.8,2.475 3.567,4.257c0.767,1.778 1.15,4.568 1.15,8.369l-0,14.312l-3.578,-0l0,-13.264c0,-3.203 -0.128,-5.341 -0.383,-6.416c-0.446,-1.84 -1.249,-3.224 -2.417,-4.155c-1.165,-0.927 -2.695,-1.391 -4.586,-1.391c-2.165,0 -4.104,0.716 -5.817,2.147c-1.712,1.431 -2.84,3.202 -3.384,5.316c-0.344,1.362 -0.511,3.886 -0.511,7.565l-0,10.198l-3.579,-0l0,-38.542Z" style="fill:#231f20;fill-rule:nonzero;"/><path d="M321.409,258.569c-0.478,-1.91 -1.172,-3.432 -2.088,-4.575c-0.913,-1.143 -2.118,-2.063 -3.618,-2.76c-1.501,-0.698 -3.082,-1.048 -4.736,-1.048c-2.727,0 -5.075,0.876 -7.036,2.632c-1.435,1.278 -2.516,3.195 -3.249,5.751l20.727,0Zm-0,7.489l3.016,1.584c-0.989,1.943 -2.132,3.509 -3.428,4.703c-1.296,1.194 -2.753,2.1 -4.374,2.72c-1.621,0.625 -3.454,0.935 -5.503,0.935c-4.534,0 -8.083,-1.486 -10.639,-4.462c-2.56,-2.972 -3.838,-6.331 -3.838,-10.081c0,-3.527 1.081,-6.671 3.25,-9.431c2.742,-3.509 6.419,-5.265 11.023,-5.265c4.743,-0 8.529,1.796 11.359,5.393c2.012,2.537 3.034,5.707 3.07,9.508l-25.021,-0c0.065,3.231 1.099,5.878 3.096,7.941c1.993,2.067 4.462,3.1 7.394,3.1c1.416,0 2.793,-0.245 4.133,-0.738c1.34,-0.493 2.479,-1.146 3.417,-1.96c0.939,-0.815 1.954,-2.133 3.045,-3.947Z" style="fill:#231f20;fill-rule:nonzero;"/><path d="M330.662,247.477l3.654,-0l0,4.063c1.089,-1.602 2.239,-2.8 3.451,-3.589c1.208,-0.796 2.468,-1.19 3.783,-1.19c0.985,-0 2.044,0.314 3.169,0.946l-1.866,3.016c-0.752,-0.325 -1.38,-0.486 -1.891,-0.486c-1.194,-0 -2.344,0.489 -3.451,1.468c-1.11,0.982 -1.953,2.501 -2.53,4.564c-0.445,1.584 -0.665,4.787 -0.665,9.61l0,9.405l-3.654,-0l-0,-27.807Z" style="fill:#231f20;fill-rule:nonzero;"/><path d="M362.84,237.688l3.834,-0l0,14.108l15.028,-14.108l5.046,-0l-18.055,16.868l19.461,20.728l-5.003,-0l-16.477,-17.51l0,17.51l-3.834,-0l-0,-37.596Z" style="fill:#231f20;fill-rule:nonzero;"/><path d="M406.581,250.211c-1.99,0 -3.83,0.49 -5.513,1.468c-1.687,0.979 -3.027,2.355 -4.02,4.122c-0.997,1.771 -1.493,3.645 -1.493,5.616c-0,1.961 0.5,3.83 1.504,5.619c1.004,1.786 2.355,3.177 4.045,4.174c1.695,0.996 3.513,1.493 5.452,1.493c1.957,0 3.812,-0.493 5.568,-1.483c1.752,-0.985 3.1,-2.322 4.045,-4.005c0.942,-1.687 1.417,-3.582 1.417,-5.695c-0,-3.214 -1.059,-5.905 -3.18,-8.066c-2.118,-2.162 -4.725,-3.243 -7.825,-3.243Zm14.302,-2.734l-0,27.807l-3.527,-0l-0,-4.779c-1.501,1.822 -3.184,3.195 -5.05,4.115c-1.865,0.92 -3.906,1.38 -6.119,1.38c-3.936,0 -7.299,-1.428 -10.085,-4.279c-2.786,-2.856 -4.177,-6.328 -4.177,-10.417c-0,-4.006 1.406,-7.43 4.217,-10.275c2.812,-2.844 6.193,-4.268 10.147,-4.268c2.282,-0 4.349,0.486 6.196,1.457c1.851,0.971 3.473,2.428 4.871,4.37l-0,-5.111l3.527,-0Z" style="fill:#231f20;fill-rule:nonzero;"/><path d="M427.579,247.477l3.655,-0l0,4.063c1.088,-1.602 2.238,-2.8 3.451,-3.589c1.208,-0.796 2.468,-1.19 3.782,-1.19c0.986,-0 2.045,0.314 3.17,0.946l-1.866,3.016c-0.752,-0.325 -1.38,-0.486 -1.892,-0.486c-1.193,-0 -2.344,0.489 -3.45,1.468c-1.11,0.982 -1.953,2.501 -2.53,4.564c-0.446,1.584 -0.665,4.787 -0.665,9.61l0,9.405l-3.655,-0l0,-27.807Z" style="fill:#231f20;fill-rule:nonzero;"/><path d="M457.669,250.263c-2.976,0 -5.532,1.099 -7.668,3.297c-2.139,2.198 -3.205,4.856 -3.205,7.974c-0,2.012 0.485,3.885 1.46,5.623c0.975,1.738 2.293,3.081 3.951,4.023c1.658,0.95 3.479,1.421 5.462,1.421c1.983,0 3.805,-0.471 5.466,-1.421c1.658,-0.942 2.972,-2.285 3.947,-4.023c0.975,-1.738 1.464,-3.611 1.464,-5.623c-0,-3.118 -1.073,-5.776 -3.22,-7.974c-2.147,-2.198 -4.699,-3.297 -7.657,-3.297Zm0.015,-3.502c4.283,-0 7.832,1.552 10.65,4.652c2.56,2.829 3.841,6.178 3.841,10.044c-0,3.885 -1.354,7.281 -4.06,10.183c-2.705,2.907 -6.181,4.36 -10.431,4.36c-4.269,0 -7.756,-1.453 -10.461,-4.36c-2.706,-2.902 -4.057,-6.298 -4.057,-10.183c-0,-3.851 1.278,-7.189 3.842,-10.019c2.815,-3.118 6.375,-4.677 10.676,-4.677Z" style="fill:#231f20;fill-rule:nonzero;"/><path d="M492.775,250.518l-2.3,2.377c-1.913,-1.858 -3.786,-2.786 -5.612,-2.786c-1.161,-0 -2.158,0.384 -2.986,1.15c-0.829,0.767 -1.242,1.662 -1.242,2.684c0,0.902 0.34,1.763 1.023,2.581c0.682,0.837 2.117,1.815 4.304,2.94c2.662,1.38 4.473,2.709 5.43,3.987c0.938,1.296 1.409,2.753 1.409,4.37c-0,2.282 -0.803,4.217 -2.406,5.802c-1.607,1.585 -3.611,2.377 -6.017,2.377c-1.603,-0 -3.137,-0.351 -4.594,-1.048c-1.46,-0.697 -2.669,-1.661 -3.622,-2.888l2.25,-2.556c1.825,2.063 3.764,3.093 5.812,3.093c1.435,0 2.658,-0.46 3.666,-1.381c1.008,-0.92 1.512,-2 1.512,-3.245c0,-1.023 -0.333,-1.936 -1.001,-2.735c-0.664,-0.785 -2.169,-1.771 -4.505,-2.965c-2.512,-1.296 -4.221,-2.574 -5.123,-3.833c-0.905,-1.259 -1.358,-2.703 -1.358,-4.32c0,-2.114 0.719,-3.867 2.161,-5.265c1.443,-1.399 3.265,-2.096 5.466,-2.096c2.56,-0 5.137,1.252 7.733,3.757Z" style="fill:#231f20;fill-rule:nonzero;"/><path d="M513.094,250.518l-2.3,2.377c-1.913,-1.858 -3.786,-2.786 -5.612,-2.786c-1.161,-0 -2.158,0.384 -2.986,1.15c-0.829,0.767 -1.242,1.662 -1.242,2.684c0,0.902 0.34,1.763 1.023,2.581c0.682,0.837 2.117,1.815 4.304,2.94c2.662,1.38 4.473,2.709 5.43,3.987c0.938,1.296 1.409,2.753 1.409,4.37c-0,2.282 -0.803,4.217 -2.406,5.802c-1.607,1.585 -3.611,2.377 -6.017,2.377c-1.603,-0 -3.137,-0.351 -4.594,-1.048c-1.46,-0.697 -2.669,-1.661 -3.622,-2.888l2.25,-2.556c1.825,2.063 3.764,3.093 5.812,3.093c1.435,0 2.658,-0.46 3.666,-1.381c1.008,-0.92 1.512,-2 1.512,-3.245c0,-1.023 -0.333,-1.936 -1.001,-2.735c-0.664,-0.785 -2.169,-1.771 -4.505,-2.965c-2.512,-1.296 -4.221,-2.574 -5.123,-3.833c-0.905,-1.259 -1.358,-2.703 -1.358,-4.32c0,-2.114 0.719,-3.867 2.161,-5.265c1.443,-1.399 3.265,-2.096 5.466,-2.096c2.56,-0 5.137,1.252 7.733,3.757Z" style="fill:#231f20;fill-rule:nonzero;"/><path d="M542.845,258.569c-0.479,-1.91 -1.173,-3.432 -2.089,-4.575c-0.913,-1.143 -2.118,-2.063 -3.618,-2.76c-1.501,-0.698 -3.082,-1.048 -4.736,-1.048c-2.727,0 -5.075,0.876 -7.036,2.632c-1.435,1.278 -2.515,3.195 -3.249,5.751l20.728,0Zm-0,7.489l3.015,1.584c-0.989,1.943 -2.132,3.509 -3.428,4.703c-1.296,1.194 -2.753,2.1 -4.374,2.72c-1.621,0.625 -3.454,0.935 -5.503,0.935c-4.534,0 -8.083,-1.486 -10.639,-4.462c-2.56,-2.972 -3.838,-6.331 -3.838,-10.081c0,-3.527 1.081,-6.671 3.25,-9.431c2.742,-3.509 6.419,-5.265 11.023,-5.265c4.743,-0 8.529,1.796 11.359,5.393c2.012,2.537 3.034,5.707 3.067,9.508l-25.019,-0c0.067,3.231 1.099,5.878 3.097,7.941c1.994,2.067 4.462,3.1 7.394,3.1c1.416,0 2.793,-0.245 4.133,-0.738c1.34,-0.493 2.479,-1.146 3.417,-1.96c0.939,-0.815 1.954,-2.133 3.046,-3.947Z" style="fill:#231f20;fill-rule:nonzero;"/><path d="M552.093,247.477l3.655,-0l-0,4.063c1.092,-1.602 2.242,-2.8 3.45,-3.589c1.209,-0.796 2.472,-1.19 3.783,-1.19c0.989,-0 2.045,0.314 3.169,0.946l-1.866,3.016c-0.748,-0.325 -1.38,-0.486 -1.891,-0.486c-1.194,-0 -2.344,0.489 -3.45,1.468c-1.107,0.982 -1.95,2.501 -2.531,4.564c-0.441,1.584 -0.664,4.787 -0.664,9.61l-0,9.405l-3.655,-0l0,-27.807Z" style="fill:#231f20;fill-rule:nonzero;"/><path d="M568.659,247.477l3.578,-0l-0,27.807l-3.578,-0l-0,-27.807Zm1.778,-11.451c0.814,0 1.508,0.289 2.085,0.869c0.577,0.581 0.865,1.278 0.865,2.096c0,0.8 -0.288,1.49 -0.865,2.07c-0.577,0.581 -1.271,0.869 -2.085,0.869c-0.8,0 -1.486,-0.288 -2.063,-0.869c-0.577,-0.58 -0.866,-1.27 -0.866,-2.07c-0,-0.818 0.289,-1.515 0.866,-2.096c0.577,-0.58 1.263,-0.869 2.063,-0.869Z" style="fill:#231f20;fill-rule:nonzero;"/><path d="M603.086,258.569c-0.478,-1.91 -1.172,-3.432 -2.085,-4.575c-0.913,-1.143 -2.121,-2.063 -3.622,-2.76c-1.501,-0.698 -3.078,-1.048 -4.736,-1.048c-2.727,0 -5.075,0.876 -7.035,2.632c-1.432,1.278 -2.516,3.195 -3.25,5.751l20.728,0Zm-0,7.489l3.016,1.584c-0.99,1.943 -2.133,3.509 -3.429,4.703c-1.296,1.194 -2.753,2.1 -4.374,2.72c-1.621,0.625 -3.454,0.935 -5.499,0.935c-4.538,0 -8.083,-1.486 -10.643,-4.462c-2.559,-2.972 -3.837,-6.331 -3.837,-10.081c0,-3.527 1.084,-6.671 3.249,-9.431c2.746,-3.509 6.419,-5.265 11.023,-5.265c4.743,-0 8.53,1.796 11.359,5.393c2.012,2.537 3.038,5.707 3.071,9.508l-25.022,-0c0.07,3.231 1.099,5.878 3.096,7.941c1.998,2.067 4.462,3.1 7.394,3.1c1.417,0 2.793,-0.245 4.133,-0.738c1.34,-0.493 2.479,-1.146 3.418,-1.96c0.938,-0.815 1.953,-2.133 3.045,-3.947Z" style="fill:#231f20;fill-rule:nonzero;"/><path d="M628.232,272.55c1.99,-0 3.826,-0.49 5.509,-1.472c1.68,-0.978 3.02,-2.355 4.013,-4.126c0.997,-1.771 1.493,-3.647 1.493,-5.622c0,-1.976 -0.5,-3.86 -1.504,-5.649c-1.004,-1.789 -2.351,-3.18 -4.042,-4.181c-1.69,-0.993 -3.498,-1.493 -5.418,-1.493c-1.953,-0 -3.812,0.5 -5.572,1.493c-1.76,1.001 -3.111,2.341 -4.053,4.028c-0.945,1.686 -1.416,3.586 -1.416,5.699c0,3.221 1.058,5.911 3.173,8.077c2.117,2.165 4.724,3.246 7.817,3.246Zm-14.313,2.734l0,-38.542l3.578,0l0,15.514c1.497,-1.84 3.173,-3.217 5.032,-4.129c1.854,-0.91 3.888,-1.366 6.101,-1.366c3.932,-0 7.288,1.428 10.073,4.279c2.783,2.855 4.174,6.321 4.174,10.393c0,4.019 -1.406,7.454 -4.214,10.299c-2.807,2.844 -6.189,4.268 -10.135,4.268c-2.264,0 -4.316,-0.486 -6.153,-1.457c-1.84,-0.971 -3.465,-2.428 -4.878,-4.37l0,5.111l-3.578,-0Z" style="fill:#231f20;fill-rule:nonzero;"/><path d="M662.805,250.211c-1.993,0 -3.83,0.49 -5.517,1.468c-1.683,0.979 -3.023,2.355 -4.02,4.122c-0.997,1.771 -1.493,3.645 -1.493,5.616c0,1.961 0.5,3.83 1.504,5.619c1.004,1.786 2.355,3.177 4.049,4.174c1.691,0.996 3.509,1.493 5.448,1.493c1.961,0 3.815,-0.493 5.568,-1.483c1.753,-0.985 3.1,-2.322 4.046,-4.005c0.945,-1.687 1.416,-3.582 1.416,-5.695c0,-3.214 -1.059,-5.905 -3.18,-8.066c-2.118,-2.162 -4.725,-3.243 -7.821,-3.243Zm14.298,-2.734l0,27.807l-3.527,-0l-0,-4.779c-1.5,1.822 -3.184,3.195 -5.046,4.115c-1.869,0.92 -3.907,1.38 -6.123,1.38c-3.936,0 -7.299,-1.428 -10.081,-4.279c-2.789,-2.856 -4.18,-6.328 -4.18,-10.417c-0,-4.006 1.405,-7.43 4.217,-10.275c2.811,-2.844 6.192,-4.268 10.146,-4.268c2.282,-0 4.349,0.486 6.197,1.457c1.851,0.971 3.472,2.428 4.87,4.37l-0,-5.111l3.527,-0Z" style="fill:#231f20;fill-rule:nonzero;"/><path d="M684.69,247.477l3.579,-0l-0,12.983c-0,3.17 0.171,5.349 0.511,6.543c0.511,1.705 1.49,3.049 2.932,4.039c1.442,0.989 3.162,1.482 5.159,1.482c1.994,-0 3.688,-0.482 5.079,-1.446c1.391,-0.96 2.351,-2.227 2.881,-3.794c0.357,-1.073 0.536,-3.348 0.536,-6.824l0,-12.983l3.655,-0l-0,13.648c-0,3.834 -0.445,6.722 -1.343,8.664c-0.891,1.943 -2.239,3.465 -4.039,4.561c-1.796,1.102 -4.049,1.65 -6.758,1.65c-2.709,0 -4.969,-0.548 -6.788,-1.65c-1.811,-1.096 -3.169,-2.629 -4.06,-4.601c-0.898,-1.964 -1.344,-4.925 -1.344,-8.88l0,-13.392Z" style="fill:#231f20;fill-rule:nonzero;"/></g></svg>