<?xml version="1.0" encoding="UTF-8" standalone="no"?><!DOCTYPE svg PUBLIC "-//W3C//DTD SVG 1.1//EN" "http://www.w3.org/Graphics/SVG/1.1/DTD/svg11.dtd"><svg width="100%" height="100%" viewBox="0 0 1195 293" version="1.1" xmlns="http://www.w3.org/2000/svg" xmlns:xlink="http://www.w3.org/1999/xlink" xml:space="preserve" xmlns:serif="http://www.serif.com/" style="fill-rule:evenodd;clip-rule:evenodd;stroke-linecap:round;stroke-linejoin:round;stroke-miterlimit:10;"><g transform="matrix(1,0,-0.342017,0.999446,99.4431,0.160941)"><text x="31.26px" y="290.755px" style="font-family:'Arial-Black', 'Arial', sans-serif;font-weight:900;font-size:106.427px;fill:#f00;stroke:#f00;stroke-width:1.82px;">S<tspan x="108.947px 145.217px 215.215px 287.03px 358.845px 406.912px 478.727px 550.542px 586.812px 634.879px 700.718px 748.785px 820.6px 890.597px 962.413px 1034.23px 1070.5px " y="290.755px 290.755px 290.755px 290.755px 290.755px 290.755px 290.755px 290.755px 290.755px 290.755px 290.755px 290.755px 290.755px 290.755px 290.755px 290.755px 290.755px ">icherheitstechnik</tspan></text></g><g transform="matrix(1,0,-0.342019,0.999434,-107.184,-0.177438)"><text x="158.603px" y="163.308px" style="font-family:'Arial-Black', 'Arial', sans-serif;font-weight:900;font-size:226.818px;fill:#00007f;stroke:#00007f;stroke-width:1.82px;">T<tspan x="308.786px 461.839px 690.425px 843.478px 996.531px 1149.59px " y="163.308px 163.308px 163.308px 163.308px 163.308px 163.308px ">omanek</tspan></text></g></svg>